<?xml version="1.0" encoding="UTF-8"?>
<svg version="1.1" xmlns="http://www.w3.org/2000/svg" width="121" height="120">
<path d="M0 0 C10.16767297 2.83588158 15.51362413 6.36187717 20.8359375 15.59765625 C22.77203357 19.59329076 23.12069147 22.82744861 23.0625 27.25 C23.05347656 28.14203125 23.04445313 29.0340625 23.03515625 29.953125 C23.02355469 30.62859375 23.01195313 31.3040625 23 32 C24.17369141 32.09087891 24.17369141 32.09087891 25.37109375 32.18359375 C26.38300781 32.26738281 27.39492187 32.35117187 28.4375 32.4375 C29.44683594 32.51871094 30.45617187 32.59992187 31.49609375 32.68359375 C34 33 34 33 35 34 C35.3414894 38.47091756 35.32542248 42.95524156 35.375 47.4375 C35.43107422 49.30825195 35.43107422 49.30825195 35.48828125 51.21679688 C35.57760402 60.66019892 34.00936056 67.29961859 27.82421875 74.55078125 C25.57398236 76.40609498 23.32689272 78.24121152 21 80 C20.29101562 80.54140625 19.58203125 81.0828125 18.8515625 81.640625 C15.49214505 83.98320729 13.80451791 85.02979696 9.625 84.875 C7 84 7 84 5 83 C4.52820313 84.57201172 4.52820313 84.57201172 4.046875 86.17578125 C3.61530937 87.5549149 3.18297737 88.93380891 2.75 90.3125 C2.54503906 91.00279297 2.34007812 91.69308594 2.12890625 92.40429688 C1.16547396 95.42597087 0.32230532 97.6737721 -1.92578125 99.94921875 C-5.16867925 101.59204278 -8.53415358 101.98102171 -12 101 C-18.39328884 96.73453889 -18.85897136 89.81707717 -20.3125 82.6875 C-20.57611328 81.46998047 -20.83972656 80.25246094 -21.11132812 78.99804688 C-21.75756982 76.00183537 -22.3864276 73.0030413 -23 70 C-24.64664493 72.98349075 -25.47067759 75.68735316 -26.11328125 79.02734375 C-26.30986328 79.98447266 -26.50644531 80.94160156 -26.70898438 81.92773438 C-27.11012769 83.92825815 -27.50082642 85.93090569 -27.88085938 87.93554688 C-29.07288949 93.63506064 -30.02853687 97.44250823 -35 101 C-37.0625 101.6640625 -37.0625 101.6640625 -39 101.625 C-39.9590625 101.64433594 -39.9590625 101.64433594 -40.9375 101.6640625 C-44.2834584 100.58676529 -45.7905148 98.6961403 -48 96 C-49.24946177 93.38484746 -50.07927059 90.72000252 -50.875 87.9375 C-51.09929688 87.23044922 -51.32359375 86.52339844 -51.5546875 85.79492188 C-53.45720415 79.46310864 -53.45720415 79.46310864 -52 76 C-50.09765625 76.25 -50.09765625 76.25 -48 77 C-47.05859375 78.75 -47.05859375 78.75 -46.4375 81 C-46.19773437 81.804375 -45.95796875 82.60875 -45.7109375 83.4375 C-45.23697917 85.14583333 -44.76302083 86.85416667 -44.2890625 88.5625 C-44.04929687 89.366875 -43.80953125 90.17125 -43.5625 91 C-43.35753906 91.7425 -43.15257812 92.485 -42.94140625 93.25 C-42.12930424 95.16639375 -42.12930424 95.16639375 -40.08984375 95.9375 C-37.97944062 96.189366 -37.97944062 96.189366 -36.35961914 95.01171875 C-34.42774794 92.1532848 -33.89411593 89.1427582 -33.24609375 85.8125 C-33.09970963 85.11358643 -32.9533255 84.41467285 -32.80250549 83.69458008 C-32.336783 81.46511079 -31.88606802 79.23297881 -31.4375 77 C-30.9837242 74.76743267 -30.52664872 72.53570544 -30.06178284 70.30541992 C-29.77329573 68.91897171 -29.49140517 67.53113055 -29.21690369 66.1418457 C-28.5394642 62.86278626 -27.8878385 60.83175775 -26 58 C-23.5 57.6875 -23.5 57.6875 -21 58 C-18.350819 60.649181 -18.27981125 62.66152977 -17.5625 66.328125 C-17.30726562 67.60300781 -17.05203125 68.87789063 -16.7890625 70.19140625 C-16.52550796 71.54416696 -16.26249186 72.89703268 -16 74.25 C-15.48407246 76.88123043 -14.96182863 79.51103747 -14.4375 82.140625 C-14.09525391 83.89681152 -14.09525391 83.89681152 -13.74609375 85.68847656 C-13.02204181 88.90216783 -12.19972167 91.93139373 -11 95 C-9.12907319 96.23901711 -9.12907319 96.23901711 -7 96 C-3.36953659 93.45673419 -2.55915508 89.34623895 -1.3125 85.3125 C-1.08755859 84.61060547 -0.86261719 83.90871094 -0.63085938 83.18554688 C-0.07903643 81.45963257 0.46159058 79.73014567 1 78 C0.12021484 77.61714844 0.12021484 77.61714844 -0.77734375 77.2265625 C-3.22751432 75.87444728 -4.70519906 74.4608279 -6.5625 72.375 C-7.43068359 71.42753906 -7.43068359 71.42753906 -8.31640625 70.4609375 C-13.57271028 62.77770887 -13.38087385 55.52411314 -13.1875 46.5 C-13.16719727 44.69402344 -13.16719727 44.69402344 -13.14648438 42.8515625 C-13.11135352 39.90057027 -13.06215996 36.95052588 -13 34 C-9.37555958 32.18777979 -5.14993486 32.1330048 -1.1640625 31.59765625 C1.67764234 31.06088978 3.6006555 30.57217322 6 29 C6.66 28.01 7.32 27.02 8 26 C10.9375 25.625 10.9375 25.625 14 26 C15.875 27.5 15.875 27.5 17 29 C17.40912055 22.31769762 15.84388134 17.93655177 12.3125 12.3125 C8.54596725 8.54596725 4.00553797 6.66851266 -1 5 C-0.67 3.35 -0.34 1.7 0 0 Z M10 31 C10 31.66 10 32.32 10 33 C6.08709763 34.75380558 2.4257665 35.52564918 -1.8125 36.125 C-2.97394531 36.29257812 -4.13539062 36.46015625 -5.33203125 36.6328125 C-6.65267578 36.81457031 -6.65267578 36.81457031 -8 37 C-8.14728458 40.62456014 -8.23472226 44.24833521 -8.3125 47.875 C-8.35439453 48.88820313 -8.39628906 49.90140625 -8.43945312 50.9453125 C-8.57018995 59.10329009 -6.96295668 65.530669 -1.45043945 71.74755859 C0.13228862 73.21220135 1.75410865 74.4861529 3.5 75.75 C4.33337891 76.42289063 4.33337891 76.42289063 5.18359375 77.109375 C7.01005516 78.55624056 7.01005516 78.55624056 10 80 C16.3357804 78.72529008 22.03148902 73.07211682 26.375 68.5 C30.98275701 61.41114307 31.39847587 55.87711305 31.1875 47.5625 C31.17396484 46.54478516 31.16042969 45.52707031 31.14648438 44.47851562 C31.1113661 41.98511786 31.06218559 39.49284488 31 37 C29.69675781 36.85304688 29.69675781 36.85304688 28.3671875 36.703125 C21.82641779 35.85443452 17.15023511 35.17586631 12 31 C11.34 31 10.68 31 10 31 Z " fill="#ffffff" transform="translate(86,15)"/>
<path d="M0 0 C2.3125 0 2.3125 0 5 1 C6.07432947 3.01817357 6.75115873 5.00377262 7.421875 7.1875 C7.84741756 9.00034784 7.84741756 9.00034784 9 10 C12.27477951 10.41548529 15.54733131 10.76917907 18.83398438 11.07421875 C23.49638293 11.58221785 26.82347207 12.73569053 31 15 C36.54865398 15.73284109 40.0443354 14.25283546 44.91015625 11.890625 C47.37437634 10.8404527 49.34640897 10.65760116 52 11 C52.495 12.98 52.495 12.98 53 15 C52.15695313 15.34933594 51.31390625 15.69867188 50.4453125 16.05859375 C48.80175781 16.74115234 48.80175781 16.74115234 47.125 17.4375 C45.48917969 18.11619141 45.48917969 18.11619141 43.8203125 18.80859375 C42.19441376 19.49543463 40.57868226 20.21065887 39 21 C33.09427785 21.74740467 29.05706166 20.87078002 23.9296875 17.95703125 C20.98303827 16.49563639 18.25716036 16.27143003 15 16 C14.67 16.99 14.34 17.98 14 19 C10.55555556 22 10.55555556 22 8 22 C7.79503906 22.62648438 7.59007813 23.25296875 7.37890625 23.8984375 C7.10949219 24.71570313 6.84007813 25.53296875 6.5625 26.375 C6.29566406 27.18710937 6.02882813 27.99921875 5.75390625 28.8359375 C5 31 5 31 4 33 C2.35 32.67 0.7 32.34 -1 32 C-1.33 30.02 -1.66 28.04 -2 26 C-2.66 26 -3.32 26 -4 26 C-6.47658938 33.12019447 -7.68141801 39.3499911 -4.421875 46.42578125 C-3.39535989 48.37501515 -2.34293179 50.30877851 -1.2878418 52.24267578 C1.85930134 58.21967325 3.80739946 64.30085347 5.5625 70.8125 C5.82562988 71.77381836 6.08875977 72.73513672 6.35986328 73.72558594 C8.13599923 80.59200231 8.13599923 80.59200231 7 84 C5.68 84 4.36 84 3 84 C2.83918945 83.37544922 2.67837891 82.75089844 2.51269531 82.10742188 C1.7676885 79.2357979 1.00895339 76.3679681 0.25 73.5 C-0.12898438 72.02660156 -0.12898438 72.02660156 -0.515625 70.5234375 C-2.09482645 64.60143206 -4.02903487 59.35662 -7 54 C-7.72916667 52.5625 -8.45833333 51.125 -9.1875 49.6875 C-9.51105469 49.05199219 -9.83460937 48.41648438 -10.16796875 47.76171875 C-12.82562816 42.13446808 -12.95162296 36.11007685 -11.140625 30.19140625 C-9.88495166 27.05677245 -8.50963937 24.01927873 -7 21 C-8.32 20.34 -9.64 19.68 -11 19 C-11.4375 16.8125 -11.4375 16.8125 -11 14 C-9.29299987 12.81823068 -7.58017872 11.64287136 -5.82421875 10.53515625 C-2.56728974 7.7943145 -1.3795979 3.93313935 0 0 Z M1 10 C-0.37482707 11.63260714 -1.70647667 13.30225062 -3 15 C-3.66 15.66 -4.32 16.32 -5 17 C-3.824375 17.928125 -3.824375 17.928125 -2.625 18.875 C0 21 0 21 2 23 C3.98 20.69 5.96 18.38 8 16 C6.38405168 13.95880212 4.7143618 11.95927063 3 10 C2.34 10 1.68 10 1 10 Z " fill="#ffffff" transform="translate(28,4)"/>
<path d="M0 0 C0.70769531 0.28359375 1.41539063 0.5671875 2.14453125 0.859375 C6.13183414 2.35378703 10.03366534 3.35370883 14.20703125 4.1796875 C15.95703125 4.609375 15.95703125 4.609375 16.95703125 5.609375 C17.02929627 7.46225002 17.04084345 9.31771378 17.01953125 11.171875 C17.01050781 12.18378906 17.00148437 13.19570313 16.9921875 14.23828125 C16.98058594 15.02074219 16.96898437 15.80320312 16.95703125 16.609375 C15.63703125 16.939375 14.31703125 17.269375 12.95703125 17.609375 C11.47870865 14.65272981 11.89670342 11.86707763 11.95703125 8.609375 C10.74015625 8.485625 9.52328125 8.361875 8.26953125 8.234375 C5.68264221 7.97130154 3.94235439 7.60222969 1.58203125 6.453125 C-1.99623929 5.30296661 -3.87729847 6.18483885 -7.35546875 7.484375 C-8.42410156 7.87367187 -9.49273437 8.26296875 -10.59375 8.6640625 C-11.40199219 8.97601563 -12.21023437 9.28796875 -13.04296875 9.609375 C-13.12462371 11.81708305 -13.18245363 14.02567925 -13.23046875 16.234375 C-13.28267578 18.07902344 -13.28267578 18.07902344 -13.3359375 19.9609375 C-13.02049885 23.88920011 -11.9457638 26.20332192 -10.04296875 29.609375 C-10.04296875 30.269375 -10.04296875 30.929375 -10.04296875 31.609375 C-9.46546875 31.8775 -8.88796875 32.145625 -8.29296875 32.421875 C-6.04296875 33.609375 -6.04296875 33.609375 -4.04296875 35.296875 C-2.17003518 36.83871093 -2.17003518 36.83871093 -0.13671875 36.3515625 C5.25005893 34.44207041 8.89571743 30.24089523 11.39453125 25.234375 C11.91015625 24.038125 12.42578125 22.841875 12.95703125 21.609375 C14.27703125 21.939375 15.59703125 22.269375 16.95703125 22.609375 C16.60430203 29.66395946 12.67746456 34.07720698 7.69921875 38.7109375 C1.74185502 43.64591538 1.74185502 43.64591538 -0.97265625 43.51953125 C-8.40110783 40.25381575 -14.96109285 35.17397948 -18.04296875 27.609375 C-19.0129253 23.00373095 -19.20724386 18.56009236 -19.23046875 13.859375 C-19.24464844 12.54453125 -19.25882812 11.2296875 -19.2734375 9.875 C-19.04296875 6.609375 -19.04296875 6.609375 -17.04296875 4.609375 C-15.27003734 4.04653963 -13.4739713 3.55482335 -11.66796875 3.109375 C-7.67102933 2.13152081 -7.67102933 2.13152081 -3.953125 0.4375 C-2.04296875 -0.390625 -2.04296875 -0.390625 0 0 Z " fill="#ffffff" transform="translate(98.04296875,49.390625)"/>
<path d="M0 0 C1.65 0.33 3.3 0.66 5 1 C5.12375 1.8971875 5.12375 1.8971875 5.25 2.8125 C6.20455872 5.5966296 7.57132271 6.43311142 10 8 C9.6875 9.875 9.6875 9.875 9 12 C8.01 12.66 7.02 13.32 6 14 C5.505 14.86625 5.01 15.7325 4.5 16.625 C4.005 17.40875 3.51 18.1925 3 19 C2.01 19 1.02 19 0 19 C-0.433125 18.071875 -0.86625 17.14375 -1.3125 16.1875 C-2.72038627 13.52815927 -3.76123556 11.91894095 -6 10 C-5 7 -5 7 -2 5 C-0.79549696 2.44816596 -0.79549696 2.44816596 0 0 Z " fill="#ffffff" transform="translate(44,30)"/>
<path d="M0 0 C2.375 0.1875 2.375 0.1875 5 1 C6.125 3.4375 6.125 3.4375 7 6 C7.99 6.66 8.98 7.32 10 8 C9.42235003 11.3503698 8.41423154 12.68233772 6 15 C4.82425289 17.09989652 4.82425289 17.09989652 4 19 C2.68 19 1.36 19 0 19 C-0.45375 18.030625 -0.9075 17.06125 -1.375 16.0625 C-2.65786221 12.92920418 -2.65786221 12.92920418 -5 12 C-5.1875 9.625 -5.1875 9.625 -5 7 C-4.01 6.34 -3.02 5.68 -2 5 C-0.79549696 2.44816596 -0.79549696 2.44816596 0 0 Z M2 8 C2 11 2 11 2 11 Z " fill="#ffffff" transform="translate(6,61)"/>
<path d="M0 0 C1.32 0.33 2.64 0.66 4 1 C2.55339896 5.25425145 0.43727963 8.32284405 -2.375 11.8125 C-3.53128906 13.27623047 -3.53128906 13.27623047 -4.7109375 14.76953125 C-7 17 -7 17 -11 17 C-12.73828125 15.35546875 -12.73828125 15.35546875 -14.3125 13.1875 C-14.84488281 12.47980469 -15.37726563 11.77210937 -15.92578125 11.04296875 C-16.28027344 10.36878906 -16.63476562 9.69460937 -17 9 C-16.67 8.01 -16.34 7.02 -16 6 C-14.68 6 -13.36 6 -12 6 C-11.01 7.32 -10.02 8.64 -9 10 C-6.03 6.7 -3.06 3.4 0 0 Z " fill="#ffffff" transform="translate(105,60)"/>
</svg>
