<?xml version="1.0" encoding="UTF-8"?>
<svg version="1.1" xmlns="http://www.w3.org/2000/svg" width="121" height="120">
<path d="M0 0 C8.18261558 6.74735841 12.89878293 14.00107165 14.16308594 24.76782227 C14.36178837 28.49448141 14.45744142 32.20588653 14.5 35.9375 C14.52964844 37.22333984 14.55929688 38.50917969 14.58984375 39.83398438 C14.65985265 42.97271665 14.71289059 46.11073583 14.75 49.25 C15.554375 49.53875 16.35875 49.8275 17.1875 50.125 C19.75 51.25 19.75 51.25 20.75 53.25 C21.15601504 61.64097744 21.15601504 61.64097744 18.75 65.25 C19.74 66.735 19.74 66.735 20.75 68.25 C21.38033819 73.39094003 21.4309107 77.91339751 19.0625 82.5625 C17.21591666 87.75051985 18.60623325 91.52504216 19.98828125 96.75 C20.77666097 100.37250373 20.94864387 103.55430009 20.75 107.25 C18.68457019 109.31542981 14.26722352 108.42832703 11.42236328 108.44287109 C10.54921478 108.45104858 9.67606628 108.45922607 8.77645874 108.46765137 C5.87441709 108.49255327 2.97242446 108.50903242 0.0703125 108.5234375 C-0.91795658 108.52876118 -1.90622566 108.53408485 -2.92444229 108.53956985 C-8.15388464 108.56632065 -13.38330294 108.58569048 -18.61279297 108.60009766 C-24.02607071 108.61676202 -29.43874157 108.66154929 -34.85178947 108.7124691 C-39.00384251 108.74605337 -43.15574989 108.75766534 -47.30792618 108.76332474 C-49.30391205 108.77006032 -51.29988758 108.78534177 -53.29574203 108.80921555 C-56.08552902 108.84068522 -58.87365782 108.84093168 -61.66357422 108.83349609 C-62.49278381 108.84990143 -63.32199341 108.86630676 -64.17633057 108.88320923 C-66.47921753 108.85800171 -66.47921753 108.85800171 -70.25 108.25 C-72.86659802 105.12281646 -73.69193063 102.15760176 -74.43359375 98.1953125 C-76.20556423 87.14091931 -76.20556423 87.14091931 -82.2734375 78.28515625 C-85.22947103 76.6245816 -88.04637074 75.34112723 -91.25 74.25 C-92.25 73.25 -92.25 73.25 -92.5625 70.4375 C-92.25 67.25 -92.25 67.25 -90.8125 64.75 C-87.79658218 62.98458469 -87.06650516 63.18656565 -83.75 63.875 C-81.38003836 64.49995564 -79.4379704 65.1406354 -77.31640625 66.375 C-73.82261356 67.85441316 -70.45801447 66.75254785 -66.80859375 66.1484375 C-64.25 66.25 -64.25 66.25 -62.37109375 67.96875 C-61.05803479 70.64061911 -61.17392125 71.53929342 -61.875 74.375 C-62.82453553 80.25820471 -60.22330825 84.32192161 -57.25 89.25 C-56.06242922 85.09350229 -56.58559036 83.15774437 -58.25 79.25 C-58.515625 76.53125 -58.515625 76.53125 -58.5 73.75 C-58.50773437 72.37328125 -58.50773437 72.37328125 -58.515625 70.96875 C-58.25 68.25 -58.25 68.25 -57.109375 65.59375 C-56.68398437 64.43359375 -56.68398437 64.43359375 -56.25 63.25 C-56.91 62.26 -57.57 61.27 -58.25 60.25 C-58.69351586 56.18443799 -58.91104524 54.10935881 -56.375 50.8125 C-54.25 49.25 -54.25 49.25 -52.25 49.25 C-52.2406543 48.45940186 -52.23130859 47.66880371 -52.22167969 46.85424805 C-52.1674499 43.21473821 -52.08390543 39.57644193 -52 35.9375 C-51.98582031 34.69419922 -51.97164062 33.45089844 -51.95703125 32.16992188 C-51.64006497 20.09350676 -49.24216586 11.22433552 -40.7578125 2.41796875 C-29.2279381 -7.54944603 -12.57509835 -8.95826054 0 0 Z M-41.25 10.25 C-44.71089444 15.61689428 -46.30263802 20.77145602 -46.53125 27.13671875 C-46.56863281 28.07580078 -46.60601562 29.01488281 -46.64453125 29.98242188 C-46.67933594 30.95759766 -46.71414062 31.93277344 -46.75 32.9375 C-46.99834402 39.75776253 -47.41267759 46.47466617 -48.25 53.25 C-50.725 53.745 -50.725 53.745 -53.25 54.25 C-53.25 55.9 -53.25 57.55 -53.25 59.25 C-49.95 59.91 -46.65 60.57 -43.25 61.25 C-43.25 62.57 -43.25 63.89 -43.25 65.25 C-44.343125 65.3325 -45.43625 65.415 -46.5625 65.5 C-50.19669885 65.92343838 -50.19669885 65.92343838 -52.1875 67.9375 C-53.51497346 70.82670695 -53.32318903 73.10287166 -53.25 76.25 C-51.765 75.85167969 -51.765 75.85167969 -50.25 75.4453125 C-43.59517208 73.66350611 -36.94182554 71.88881442 -30.25 70.25 C-29.5215399 64.56370994 -29.5215399 64.56370994 -31.48046875 59.375 C-32.55001768 58.2341478 -33.62979447 57.10281206 -34.71875 55.98046875 C-39.32658453 50.77314554 -39.63875138 44.14023473 -39.94140625 37.47265625 C-40.04324219 36.73917969 -40.14507812 36.00570312 -40.25 35.25 C-40.91 34.92 -41.57 34.59 -42.25 34.25 C-42.875 32.1875 -42.875 32.1875 -43.25 30.25 C-42.33504761 30.28927612 -42.33504761 30.28927612 -41.40161133 30.3293457 C-38.62217242 30.43365719 -35.84314561 30.49842982 -33.0625 30.5625 C-32.10279297 30.60439453 -31.14308594 30.64628906 -30.15429688 30.68945312 C-25.57887944 30.7686126 -23.05930565 30.80900494 -19.21875 28.15625 C-17.04300442 24.94443509 -15.95680581 22.17495463 -14.9375 18.4375 C-14.61136719 17.27605469 -14.28523438 16.11460938 -13.94921875 14.91796875 C-13.71847656 14.03753906 -13.48773438 13.15710937 -13.25 12.25 C-12.26 12.25 -11.27 12.25 -10.25 12.25 C-9.76080078 13.94769531 -9.76080078 13.94769531 -9.26171875 15.6796875 C-8.82088787 17.16162961 -8.37944996 18.64339124 -7.9375 20.125 C-7.61749023 21.24455078 -7.61749023 21.24455078 -7.29101562 22.38671875 C-5.92180933 27.10324103 -5.92180933 27.10324103 -2.25 30.25 C-0.19290404 30.49055468 -0.19290404 30.49055468 1.9375 30.375 C3.195625 30.33375 4.45375 30.2925 5.75 30.25 C5.375 32.1875 5.375 32.1875 4.75 34.25 C3.76 34.745 3.76 34.745 2.75 35.25 C2.23991122 38.31431109 1.91341689 41.34865986 1.62695312 44.43945312 C1.13020083 48.97287724 -0.08277218 52.26395428 -2.25 56.25 C-2.25 56.91 -2.25 57.57 -2.25 58.25 C-2.889375 58.559375 -3.52875 58.86875 -4.1875 59.1875 C-6.18610821 60.0845163 -6.18610821 60.0845163 -7.25 61.25 C-7.32179964 62.76928038 -7.33392007 64.29167482 -7.3125 65.8125 C-7.30347656 66.63878906 -7.29445312 67.46507813 -7.28515625 68.31640625 C-7.27355469 68.95449219 -7.26195312 69.59257813 -7.25 70.25 C-6.36477661 70.46148682 -6.36477661 70.46148682 -5.46166992 70.67724609 C-2.78541471 71.32030575 -0.11147871 71.97254186 2.5625 72.625 C3.49126953 72.84671875 4.42003906 73.0684375 5.37695312 73.296875 C6.26962891 73.51601562 7.16230469 73.73515625 8.08203125 73.9609375 C8.90421143 74.15993652 9.7263916 74.35893555 10.57348633 74.56396484 C12.75 75.25 12.75 75.25 15.75 77.25 C15.98808624 74.39296518 16.17918681 72.05044393 15.75 69.25 C12.85425444 66.10604768 9.7611667 64.62525715 5.75 63.25 C5.75 62.59 5.75 61.93 5.75 61.25 C9.05 60.59 12.35 59.93 15.75 59.25 C15.75 57.6 15.75 55.95 15.75 54.25 C15.13125 54.085 14.5125 53.92 13.875 53.75 C11.11439173 51.80133534 10.87384971 49.89210987 10.14306641 46.69287109 C9.24801709 41.130223 9.38879004 35.44812056 9.359375 29.82617188 C9.12801283 20.12824099 6.28500361 13.10324583 -0.31640625 5.9765625 C-6.12812599 0.7871077 -13.09061037 -1.14927159 -20.75390625 -1.0234375 C-28.955946 -0.12493549 -35.87627232 4.10682402 -41.25 10.25 Z M-12.25 22.25 C-12.43175781 22.79269531 -12.61351563 23.33539063 -12.80078125 23.89453125 C-13.05214844 24.60996094 -13.30351563 25.32539062 -13.5625 26.0625 C-13.80613281 26.77019531 -14.04976562 27.47789063 -14.30078125 28.20703125 C-15.3408242 30.44547761 -16.34952848 31.68739008 -18.25 33.25 C-21.71712111 34.40570704 -24.7914956 34.57835293 -28.4375 34.8125 C-30.34595703 34.93818359 -30.34595703 34.93818359 -32.29296875 35.06640625 C-33.26878906 35.12699219 -34.24460938 35.18757813 -35.25 35.25 C-35.73022936 42.50679924 -35.60567553 48.20917787 -31.25 54.25 C-27.594582 58.10849678 -23.52420061 59.92863294 -18.25 60.25 C-11.98770316 59.42210313 -8.20748176 56.86281023 -4.34375 51.96875 C-1.22604864 47.06950501 -1.40974257 40.82059557 -2.25 35.25 C-5.02867705 32.98083907 -5.02867705 32.98083907 -8.25 31.25 C-9.64334949 28.34591261 -10.48904621 25.37391555 -11.25 22.25 C-11.58 22.25 -11.91 22.25 -12.25 22.25 Z M-26.25 63.25 C-26.25 65.56 -26.25 67.87 -26.25 70.25 C-21.3629572 71.8138537 -16.1370428 71.8138537 -11.25 70.25 C-11.25 67.94 -11.25 65.63 -11.25 63.25 C-13.0134375 63.5284375 -13.0134375 63.5284375 -14.8125 63.8125 C-18.86268594 64.33230996 -22.24874453 64.0002354 -26.25 63.25 Z M-87.25 69.25 C-85.46018953 71.26353678 -83.84444211 72.96525277 -81.39428711 74.13891602 C-77.83681573 75.85318178 -75.72505003 77.27914009 -73.95947266 80.88745117 C-72.93484931 84.0705772 -72.08932268 87.24765149 -71.3125 90.5 C-70.74263295 92.69316315 -70.17111096 94.88589719 -69.59765625 97.078125 C-69.24199585 98.5307373 -69.24199585 98.5307373 -68.87915039 100.01269531 C-68.46008909 102.2030056 -68.46008909 102.2030056 -67.25 103.25 C-65.39712498 103.32226502 -63.54166122 103.3338122 -61.6875 103.3125 C-60.67558594 103.30347656 -59.66367187 103.29445312 -58.62109375 103.28515625 C-57.83863281 103.27355469 -57.05617188 103.26195312 -56.25 103.25 C-57.51992169 100.54123591 -58.79090757 97.83297967 -60.0625 95.125 C-60.59713867 93.98417969 -60.59713867 93.98417969 -61.14257812 92.8203125 C-61.49384766 92.07265625 -61.84511719 91.325 -62.20703125 90.5546875 C-62.55161377 89.81718262 -62.89619629 89.07967773 -63.2512207 88.31982422 C-64.12075505 86.51784128 -65.0696147 84.75456264 -66.03125 83 C-67.35139643 80.02120805 -67.46599614 78.54597682 -66.9375 75.375 C-66.81761719 74.59382813 -66.69773437 73.81265625 -66.57421875 73.0078125 C-66.46722656 72.42773438 -66.36023438 71.84765625 -66.25 71.25 C-67.24 71.91 -68.23 72.57 -69.25 73.25 C-73.15447463 73.02474185 -76.40003469 72.28506498 -79.9375 70.6875 C-83.25973597 68.98460459 -83.25973597 68.98460459 -87.25 69.25 Z M-33.25 75.25 C-32.59 77.89 -31.93 80.53 -31.25 83.25 C-29.6 83.58 -27.95 83.91 -26.25 84.25 C-26.25 86.89 -26.25 89.53 -26.25 92.25 C-23.775 93.24 -23.775 93.24 -21.25 94.25 C-20.77013583 88.98748956 -22.2359482 85.70730815 -25 81.375 C-25.34804687 80.78203125 -25.69609375 80.1890625 -26.0546875 79.578125 C-27.19818635 77.66081287 -27.19818635 77.66081287 -29.25 75.25 C-30.57 75.25 -31.89 75.25 -33.25 75.25 Z M-8.25 75.25 C-9.99136494 77.3531367 -9.99136494 77.3531367 -11.375 80.0625 C-12.12136719 81.40248047 -12.12136719 81.40248047 -12.8828125 82.76953125 C-13.33398438 83.58808594 -13.78515625 84.40664062 -14.25 85.25 C-14.91 86.24 -15.57 87.23 -16.25 88.25 C-16.41699232 91.37521833 -16.41699232 91.37521833 -16.25 94.25 C-14.27 93.26 -12.29 92.27 -10.25 91.25 C-10.353125 90.321875 -10.45625 89.39375 -10.5625 88.4375 C-10.4078125 86.8596875 -10.4078125 86.8596875 -10.25 85.25 C-9.0434375 84.5384375 -9.0434375 84.5384375 -7.8125 83.8125 C-6.966875 83.296875 -6.12125 82.78125 -5.25 82.25 C-4.35407917 78.65080577 -4.35407917 78.65080577 -4.25 75.25 C-5.57 75.25 -6.89 75.25 -8.25 75.25 Z M-22.25 76.25 C-21.17598892 79.16517292 -20.47189824 81.02810176 -18.25 83.25 C-15.99114676 79.99602492 -15.99114676 79.99602492 -15.25 76.25 C-17.56 76.25 -19.87 76.25 -22.25 76.25 Z M-49.25 79.25 C-49.9503953 81.9764315 -50.6355775 84.70523527 -51.3125 87.4375 C-51.51166016 88.20642578 -51.71082031 88.97535156 -51.91601562 89.76757812 C-53.14875339 94.80666409 -53.64871797 98.45256406 -51.25 103.25 C-49.27 103.25 -47.29 103.25 -45.25 103.25 C-45.25 100.28 -45.25 97.31 -45.25 94.25 C-43.93 94.25 -42.61 94.25 -41.25 94.25 C-41.25 97.22 -41.25 100.19 -41.25 103.25 C-34.65 103.25 -28.05 103.25 -21.25 103.25 C-21.25 101.93 -21.25 100.61 -21.25 99.25 C-24.55 97.6 -27.85 95.95 -31.25 94.25 C-31.25 92.27 -31.25 90.29 -31.25 88.25 C-31.88421875 88.01539062 -32.5184375 87.78078125 -33.171875 87.5390625 C-35.25 86.25 -35.25 86.25 -36.078125 84.0859375 C-36.21734375 83.27382812 -36.3565625 82.46171875 -36.5 81.625 C-36.64953125 80.80773437 -36.7990625 79.99046875 -36.953125 79.1484375 C-37.10007812 78.20871094 -37.10007812 78.20871094 -37.25 77.25 C-41.59140593 76.98688449 -45.10907629 78.01113708 -49.25 79.25 Z M-0.25 77.25 C-0.34796875 77.87648438 -0.4459375 78.50296875 -0.546875 79.1484375 C-0.69640625 79.96570313 -0.8459375 80.78296875 -1 81.625 C-1.13921875 82.43710938 -1.2784375 83.24921875 -1.421875 84.0859375 C-2.25 86.25 -2.25 86.25 -4.328125 87.5390625 C-5.27945313 87.89097656 -5.27945313 87.89097656 -6.25 88.25 C-6.25 90.23 -6.25 92.21 -6.25 94.25 C-9.55 95.9 -12.85 97.55 -16.25 99.25 C-16.25 100.57 -16.25 101.89 -16.25 103.25 C-9.65 103.25 -3.05 103.25 3.75 103.25 C3.75 100.28 3.75 97.31 3.75 94.25 C5.07 94.25 6.39 94.25 7.75 94.25 C7.75 97.22 7.75 100.19 7.75 103.25 C10.39 103.25 13.03 103.25 15.75 103.25 C15.14535174 99.23798096 14.46666809 95.243509 13.75 91.25 C13.45802734 89.56777344 13.45802734 89.56777344 13.16015625 87.8515625 C12.54597712 84.8497166 11.91217018 82.08569523 10.75 79.25 C7.12394701 77.04283731 3.93860592 77.00361142 -0.25 77.25 Z " fill="#018380" transform="translate(97.25,8.75)"/>
<path d="M0 0 C2 0.3125 2 0.3125 4 1 C4.33 1.66 4.66 2.32 5 3 C5.845625 2.484375 6.69125 1.96875 7.5625 1.4375 C11.60552308 -0.25321874 13.78853449 0.00906694 18 1 C19 2 19 2 19.375 4.3125 C19 7 19 7 17 9.3125 C13.00289831 11.5608697 10.53920563 11.22696028 6 11 C5.67 11.33 5.34 11.66 5 12 C5.9075 12.061875 6.815 12.12375 7.75 12.1875 C11 13 11 13 13.4375 15 C15.64504184 19.23848034 15.27779502 22.46588865 14 27 C11.48944653 31.27723925 8.67891866 33.38037431 4 35 C-2.22435142 34.89796145 -7.65233779 33.22384524 -13 30 C-16.27375122 26.31702987 -17.14784576 21.86966966 -17 17 C-15.84910871 13.0997573 -14.79100767 10.76774274 -11.875 7.9375 C-7.61761362 6.54922183 -4.19620284 7.72925448 0 9 C-0.185625 7.700625 -0.37125 6.40125 -0.5625 5.0625 C-0.87890625 2.84765625 -0.87890625 2.84765625 -1 1 C-0.67 0.67 -0.34 0.34 0 0 Z M-9.75 13.0625 C-11.98358477 16.5245564 -12.21562659 19.67543663 -11.5625 23.6875 C-9.17339948 27.22336876 -5.9919869 27.88470501 -2 29 C-1.0925 29.268125 -0.185 29.53625 0.75 29.8125 C3.58310519 30.0485921 4.70849236 29.68043893 7 28 C9.1991516 25.19418589 10.07641223 23.8405345 9.75 20.25 C9.2049729 18.0559017 9.2049729 18.0559017 8 17 C6.081875 16.814375 6.081875 16.814375 4.125 16.625 C0.6218845 16.23922174 -0.65580065 15.67908497 -3 13 C-6.47833209 11.75996622 -6.47833209 11.75996622 -9.75 13.0625 Z " fill="#018380" transform="translate(22,35)"/>
<path d="M0 0 C1.32 0.33 2.64 0.66 4 1 C4 1.66 4 2.32 4 3 C6.31 3 8.62 3 11 3 C11.33 2.01 11.66 1.02 12 0 C12.99 0 13.98 0 15 0 C15.3125 2.3125 15.3125 2.3125 15 5 C12.01820758 7.71072038 10.41427964 8.0142855 6.375 7.875 C1.67213115 6.6557377 1.67213115 6.6557377 0 4 C0 2.68 0 1.36 0 0 Z " fill="#018380" transform="translate(71,58)"/>
<path d="M0 0 C0.99 0.33 1.98 0.66 3 1 C3 2.65 3 4.3 3 6 C1.68 6 0.36 6 -1 6 C-1.042721 4.33388095 -1.04063832 2.66617115 -1 1 C-0.67 0.67 -0.34 0.34 0 0 Z " fill="#018380" transform="translate(87,48)"/>
<path d="M0 0 C0.99 0.33 1.98 0.66 3 1 C3 2.65 3 4.3 3 6 C1.68 6 0.36 6 -1 6 C-1.042721 4.33388095 -1.04063832 2.66617115 -1 1 C-0.67 0.67 -0.34 0.34 0 0 Z " fill="#018380" transform="translate(68,48)"/>
</svg>
