<?xml version="1.0" encoding="UTF-8"?>
<svg version="1.1" xmlns="http://www.w3.org/2000/svg" width="121" height="120">
<path d="M0 0 C0.9170874 0.00091644 1.8341748 0.00183289 2.77905273 0.0027771 C4.71571028 0.00881216 6.65235853 0.02455534 8.58886719 0.04931641 C11.55178253 0.08580551 14.513446 0.0903358 17.4765625 0.08984375 C19.3593858 0.09967599 21.24220063 0.11133345 23.125 0.125 C24.45325806 0.12833847 24.45325806 0.12833847 25.80834961 0.13174438 C27.04983765 0.15088394 27.04983765 0.15088394 28.31640625 0.17041016 C29.04158447 0.17803375 29.7667627 0.18565735 30.51391602 0.19351196 C32.93326874 0.50933826 34.51817738 1.13074612 36.5625 2.4609375 C38.2130009 7.41244021 37.83085933 12.5258802 37.875 17.7109375 C37.90400391 18.83113281 37.93300781 19.95132812 37.96289062 21.10546875 C37.97126953 22.19730469 37.97964844 23.28914063 37.98828125 24.4140625 C38.00286377 25.40567383 38.01744629 26.39728516 38.0324707 27.41894531 C37.5625 30.4609375 37.5625 30.4609375 33.5625 37.4609375 C40.8225 37.4609375 48.0825 37.4609375 55.5625 37.4609375 C55.48364927 31.71709164 55.48364927 31.71709164 55.38232422 25.97363281 C55.3773291 25.25272461 55.37233398 24.53181641 55.3671875 23.7890625 C55.35671387 23.0559082 55.34624023 22.32275391 55.33544922 21.56738281 C55.59914008 19.12101211 56.26840223 17.54489486 57.5625 15.4609375 C60.75128366 13.86654567 64.20764714 14.27674363 67.7109375 14.2578125 C68.92434311 14.24926239 68.92434311 14.24926239 70.16226196 14.24053955 C71.87541393 14.2310866 73.5885841 14.2245544 75.30175781 14.22070312 C77.92024543 14.21100143 80.53794682 14.17998332 83.15625 14.1484375 C84.82030784 14.14190699 86.48437129 14.13665671 88.1484375 14.1328125 C88.93084808 14.1204657 89.71325867 14.1081189 90.51937866 14.09539795 C93.66383296 14.10825447 96.17139523 14.28427 99.05517578 15.58691406 C101.24274012 18.30666526 101.08003134 20.31241635 101.09375 23.7734375 C101.10148437 25.63355469 101.10148437 25.63355469 101.109375 27.53125 C101.09390625 28.82804687 101.0784375 30.12484375 101.0625 31.4609375 C101.08570312 33.40613281 101.08570312 33.40613281 101.109375 35.390625 C101.10421875 36.63070312 101.0990625 37.87078125 101.09375 39.1484375 C101.08923828 40.28667969 101.08472656 41.42492188 101.08007812 42.59765625 C100.5625 45.4609375 100.5625 45.4609375 98.77929688 47.35546875 C96.5625 48.4609375 96.5625 48.4609375 92.5625 48.4609375 C92.5625 64.9609375 92.5625 81.4609375 92.5625 98.4609375 C93.8825 98.4609375 95.2025 98.4609375 96.5625 98.4609375 C97.19040698 106.6237282 97.19040698 106.6237282 94.6875 109.9609375 C90.45509813 112.94851529 86.72225333 112.61563388 81.6940918 112.62207031 C80.775242 112.62703522 79.85639221 112.63200012 78.90969849 112.63711548 C75.86036437 112.6517581 72.81108229 112.65854285 69.76171875 112.6640625 C67.64663186 112.66981254 65.53154498 112.67557029 63.41645813 112.68133545 C58.97693641 112.69185163 54.53743282 112.69769015 50.09790039 112.70117188 C44.40813485 112.70665569 38.71860873 112.73067883 33.02891827 112.75914383 C28.65803832 112.77776506 24.28721608 112.78297555 19.91629982 112.78450775 C17.81873072 112.78753633 15.72116268 112.79557174 13.62363243 112.80869293 C10.68860026 112.82574131 7.75415335 112.82387596 4.8190918 112.81738281 C3.95189011 112.8265976 3.08468842 112.83581238 2.19120789 112.8453064 C-3.73356416 112.80423229 -7.13981936 111.75861814 -11.4375 107.4609375 C-11.70741906 104.77254365 -11.52487357 102.16951814 -11.4375 99.4609375 C-9.4575 98.9659375 -9.4575 98.9659375 -7.4375 98.4609375 C-7.4375 92.5209375 -7.4375 86.5809375 -7.4375 80.4609375 C-10.4075 80.4609375 -13.3775 80.4609375 -16.4375 80.4609375 C-17.4275 79.8009375 -18.4175 79.1409375 -19.4375 78.4609375 C-19.80981445 75.87890625 -19.80981445 75.87890625 -19.80078125 72.6484375 C-19.80013672 71.49085937 -19.79949219 70.33328125 -19.79882812 69.140625 C-19.78271484 67.92632812 -19.76660156 66.71203125 -19.75 65.4609375 C-19.75322266 64.24664062 -19.75644531 63.03234375 -19.75976562 61.78125 C-19.70431548 52.72775298 -19.70431548 52.72775298 -17.4375 50.4609375 C-15.0546875 50.265625 -15.0546875 50.265625 -12.3125 50.3359375 C-11.40242187 50.35398438 -10.49234375 50.37203125 -9.5546875 50.390625 C-8.85601562 50.41382813 -8.15734375 50.43703125 -7.4375 50.4609375 C-7.46070313 49.69007812 -7.48390625 48.91921875 -7.5078125 48.125 C-7.52585937 47.12210938 -7.54390625 46.11921875 -7.5625 45.0859375 C-7.58570313 44.08820312 -7.60890625 43.09046875 -7.6328125 42.0625 C-7.4375 39.4609375 -7.4375 39.4609375 -5.4375 37.4609375 C-3.00732422 37.14208984 -3.00732422 37.14208984 0.0078125 37.046875 C1.08417969 37.00820313 2.16054688 36.96953125 3.26953125 36.9296875 C4.39746094 36.89875 5.52539062 36.8678125 6.6875 36.8359375 C7.82316406 36.79726563 8.95882813 36.75859375 10.12890625 36.71875 C12.93993956 36.62426149 15.75096233 36.53870209 18.5625 36.4609375 C16.74511612 34.64355362 13.8900719 35.30899 11.4453125 35.28515625 C9.57552734 35.24938477 9.57552734 35.24938477 7.66796875 35.21289062 C5.02229769 35.17005101 2.37641411 35.13873055 -0.26953125 35.11914062 C-1.51863281 35.09142578 -2.76773437 35.06371094 -4.0546875 35.03515625 C-5.20565918 35.02057373 -6.35663086 35.00599121 -7.54248047 34.9909668 C-10.4375 34.4609375 -10.4375 34.4609375 -12.30932617 32.79614258 C-14.60720485 28.03976744 -13.90589431 22.63994781 -13.875 17.4609375 C-13.89498047 16.27242187 -13.91496094 15.08390625 -13.93554688 13.859375 C-13.93490234 12.71726562 -13.93425781 11.57515625 -13.93359375 10.3984375 C-13.93544678 9.35558594 -13.9372998 8.31273437 -13.93920898 7.23828125 C-13.4375 4.4609375 -13.4375 4.4609375 -11.99633789 2.11865234 C-8.10985597 -0.39916201 -4.53663446 -0.07362589 0 0 Z M-9.4375 5.4609375 C-9.52487645 7.31463361 -9.54448153 9.17161291 -9.53515625 11.02734375 C-9.53193359 12.15205078 -9.52871094 13.27675781 -9.52539062 14.43554688 C-9.51701172 15.61955078 -9.50863281 16.80355469 -9.5 18.0234375 C-9.49548828 19.21130859 -9.49097656 20.39917969 -9.48632812 21.62304688 C-9.47449675 24.56905976 -9.45801287 27.51497431 -9.4375 30.4609375 C-8.60613525 30.43362549 -7.77477051 30.40631348 -6.91821289 30.37817383 C-3.79149681 30.3022309 -0.66929461 30.27677697 2.45825195 30.28393555 C4.46035733 30.27364133 6.46191548 30.20671884 8.46289062 30.13867188 C18.12266768 30.21166767 18.12266768 30.21166767 22.47705078 33.98974609 C24.69148219 36.72630419 26.64596124 39.51229924 28.5625 42.4609375 C28.8925 42.4609375 29.2225 42.4609375 29.5625 42.4609375 C29.8925 38.8309375 30.2225 35.2009375 30.5625 31.4609375 C31.5525 31.1309375 32.5425 30.8009375 33.5625 30.4609375 C33.59136751 26.31511863 33.60925327 22.16932534 33.625 18.0234375 C33.63756836 16.24743164 33.63756836 16.24743164 33.65039062 14.43554688 C33.65361328 13.31083984 33.65683594 12.18613281 33.66015625 11.02734375 C33.66539307 9.98521729 33.67062988 8.94309082 33.67602539 7.86938477 C33.83555556 5.50965003 33.83555556 5.50965003 32.5625 4.4609375 C29.54441937 4.3598005 26.54969487 4.32124841 23.53125 4.328125 C22.17187317 4.32668991 22.17187317 4.32668991 20.78503418 4.32522583 C18.86498953 4.32454397 16.94494259 4.32639868 15.02490234 4.33056641 C12.07514296 4.33591458 9.12553586 4.33062162 6.17578125 4.32421875 C4.31510383 4.32487953 2.4544265 4.32616069 0.59375 4.328125 C-0.29477661 4.32610077 -1.18330322 4.32407654 -2.09875488 4.32199097 C-6.08578858 3.9351095 -6.08578858 3.9351095 -9.4375 5.4609375 Z M59.5625 19.4609375 C59.47523777 21.24164996 59.45550959 23.0257689 59.46484375 24.80859375 C59.46806641 25.88818359 59.47128906 26.96777344 59.47460938 28.08007812 C59.48298828 29.21638672 59.49136719 30.35269531 59.5 31.5234375 C59.50451172 32.66361328 59.50902344 33.80378906 59.51367188 34.97851562 C59.52550253 37.80604101 59.5419859 40.6334639 59.5625 43.4609375 C60.8825 43.7909375 62.2025 44.1209375 63.5625 44.4609375 C63.2325 46.7709375 62.9025 49.0809375 62.5625 51.4609375 C65.55238729 50.37370576 67.91922022 49.21910899 70.5703125 47.421875 C75.29631467 44.69044067 80.03562512 44.86541645 85.375 44.8359375 C87.25664293 44.8104927 89.13820004 44.77704162 91.01953125 44.734375 C92.2566687 44.72543213 92.2566687 44.72543213 93.51879883 44.71630859 C95.78754133 44.64521312 95.78754133 44.64521312 97.5625 42.4609375 C97.8568496 40.05206088 97.8568496 40.05206088 97.79296875 37.26953125 C97.79103516 36.24279297 97.78910156 35.21605469 97.78710938 34.15820312 C97.77486328 33.08248047 97.76261719 32.00675781 97.75 30.8984375 C97.74935547 29.81884766 97.74871094 28.73925781 97.74804688 27.62695312 C98.18914374 22.69249973 98.18914374 22.69249973 96.5625 18.4609375 C93.90793807 18.35998186 91.27994824 18.32122752 88.625 18.328125 C87.829729 18.32716827 87.03445801 18.32621155 86.21508789 18.32522583 C84.5304354 18.32454407 82.84578029 18.32639807 81.16113281 18.33056641 C78.57350803 18.33591475 75.98605684 18.33062131 73.3984375 18.32421875 C71.76562461 18.32487953 70.13281184 18.3261607 68.5 18.328125 C67.72084229 18.32610077 66.94168457 18.32407654 66.13891602 18.32199097 C62.554558 18.0025417 62.554558 18.0025417 59.5625 19.4609375 Z M-4.4375 41.4609375 C-4.50929964 42.98021788 -4.52142007 44.50261232 -4.5 46.0234375 C-4.49097656 46.84972656 -4.48195313 47.67601562 -4.47265625 48.52734375 C-4.46105469 49.16542969 -4.44945312 49.80351563 -4.4375 50.4609375 C-4.1075 50.4609375 -3.7775 50.4609375 -3.4375 50.4609375 C-3.1075 48.1509375 -2.7775 45.8409375 -2.4375 43.4609375 C6.1425 43.1309375 14.7225 42.8009375 23.5625 42.4609375 C23.2325 41.8009375 22.9025 41.1409375 22.5625 40.4609375 C18.25001391 40.43207213 13.93755238 40.41418495 9.625 40.3984375 C7.77745117 40.38586914 7.77745117 40.38586914 5.89257812 40.37304688 C4.1378418 40.36821289 4.1378418 40.36821289 2.34765625 40.36328125 C1.26363525 40.35804443 0.17961426 40.35280762 -0.93725586 40.34741211 C-3.37799948 40.17666853 -3.37799948 40.17666853 -4.4375 41.4609375 Z M33.5625 40.4609375 C33.5625 41.1209375 33.5625 41.7809375 33.5625 42.4609375 C40.8225 42.4609375 48.0825 42.4609375 55.5625 42.4609375 C55.5625 41.8009375 55.5625 41.1409375 55.5625 40.4609375 C48.3025 40.4609375 41.0425 40.4609375 33.5625 40.4609375 Z M0.5625 45.4609375 C0.5625 47.1109375 0.5625 48.7609375 0.5625 50.4609375 C1.76648438 50.52152344 2.97046875 50.58210938 4.2109375 50.64453125 C5.78647077 50.72893482 7.36199096 50.81358291 8.9375 50.8984375 C9.7315625 50.93775391 10.525625 50.97707031 11.34375 51.01757812 C17.3359375 51.34765625 17.3359375 51.34765625 19.5625 52.4609375 C19.5625 61.3709375 19.5625 70.2809375 19.5625 79.4609375 C18.9025 79.4609375 18.2425 79.4609375 17.5625 79.4609375 C17.8925 82.7609375 18.2225 86.0609375 18.5625 89.4609375 C16.86480469 88.48640625 16.86480469 88.48640625 15.1328125 87.4921875 C13.65116924 86.64821349 12.16939142 85.80447569 10.6875 84.9609375 C9.94113281 84.53167969 9.19476563 84.10242188 8.42578125 83.66015625 C7.71035156 83.25410156 6.99492187 82.84804687 6.2578125 82.4296875 C5.59797363 82.05263672 4.93813477 81.67558594 4.25830078 81.28710938 C2.57722854 80.3149459 2.57722854 80.3149459 0.5625 80.4609375 C0.5625 86.4009375 0.5625 92.3409375 0.5625 98.4609375 C7.1625 98.4609375 13.7625 98.4609375 20.5625 98.4609375 C20.995625 96.5428125 21.42875 94.6246875 21.875 92.6484375 C23.19748047 86.79173826 23.19748047 86.79173826 25.09643555 85.07080078 C27.04935751 82.92632661 26.94412869 81.65325946 26.96875 78.78515625 C26.99066406 77.87443359 27.01257813 76.96371094 27.03515625 76.02539062 C27.04417969 75.07599609 27.05320312 74.12660156 27.0625 73.1484375 C27.17348875 61.61353494 27.17348875 61.61353494 30.5625 56.4609375 C35.4873496 52.01656103 38.51411487 51.1045889 45.01953125 51.1796875 C48.75430418 51.59274994 50.80191828 52.96968082 53.5625 55.4609375 C56.77637579 59.89386962 57.65567464 63.76400761 57.7734375 69.15625 C57.80179688 70.03667969 57.83015625 70.91710937 57.859375 71.82421875 C57.91167341 73.67296744 57.95587916 75.52196192 57.9921875 77.37109375 C58.023125 78.24894531 58.0540625 79.12679687 58.0859375 80.03125 C58.1156665 81.23418701 58.1156665 81.23418701 58.14599609 82.46142578 C58.40180988 84.86041233 58.40180988 84.86041233 61.5625 86.4609375 C62.88810421 90.399564 63.65479563 94.39787983 64.5625 98.4609375 C71.1625 98.4609375 77.7625 98.4609375 84.5625 98.4609375 C84.5625 81.9609375 84.5625 65.4609375 84.5625 48.4609375 C76.75324852 48.4609375 74.11463071 48.55351948 68.1875 52.4609375 C61.87668919 56.4609375 61.87668919 56.4609375 58.5625 56.4609375 C58.70558594 55.52121094 58.70558594 55.52121094 58.8515625 54.5625 C58.96242187 53.74523438 59.07328125 52.92796875 59.1875 52.0859375 C59.30351563 51.27382813 59.41953125 50.46171875 59.5390625 49.625 C59.54679687 48.91085938 59.55453125 48.19671875 59.5625 47.4609375 C57.74421417 45.21714349 57.74421417 45.21714349 55.13232422 45.23388672 C53.63983154 45.24959717 53.63983154 45.24959717 52.1171875 45.265625 C50.50263672 45.27529297 50.50263672 45.27529297 48.85546875 45.28515625 C47.72753906 45.30191406 46.59960938 45.31867187 45.4375 45.3359375 C43.73400391 45.34947266 43.73400391 45.34947266 41.99609375 45.36328125 C39.18468701 45.38690652 36.37369702 45.41984737 33.5625 45.4609375 C33.5625 47.1109375 33.5625 48.7609375 33.5625 50.4609375 C30.93348712 48.93887741 28.71884036 47.61727786 26.5625 45.4609375 C23.84315665 45.18248818 23.84315665 45.18248818 20.6796875 45.265625 C18.92978516 45.27529297 18.92978516 45.27529297 17.14453125 45.28515625 C15.92121094 45.30191406 14.69789062 45.31867187 13.4375 45.3359375 C11.59091797 45.34947266 11.59091797 45.34947266 9.70703125 45.36328125 C6.65866185 45.38691202 3.61067618 45.41985696 0.5625 45.4609375 Z M87.5625 48.4609375 C87.5625 64.9609375 87.5625 81.4609375 87.5625 98.4609375 C88.2225 98.4609375 88.8825 98.4609375 89.5625 98.4609375 C89.5625 81.9609375 89.5625 65.4609375 89.5625 48.4609375 C88.9025 48.4609375 88.2425 48.4609375 87.5625 48.4609375 Z M-16.4375 55.4609375 C-16.73100396 57.57626959 -16.73100396 57.57626959 -16.66796875 59.99609375 C-16.66603516 60.88748047 -16.66410156 61.77886719 -16.66210938 62.69726562 C-16.64986328 63.62990234 -16.63761719 64.56253906 -16.625 65.5234375 C-16.62435547 66.45994141 -16.62371094 67.39644531 -16.62304688 68.36132812 C-16.99519467 72.74530282 -16.99519467 72.74530282 -15.4375 76.4609375 C-13.47733886 76.51815301 -11.51693515 76.57093777 -9.55615234 76.59985352 C-0.05547146 76.78971448 6.43766103 78.25148193 14.5625 83.4609375 C14.500625 82.5121875 14.43875 81.5634375 14.375 80.5859375 C14.4678125 79.0390625 14.4678125 79.0390625 14.5625 77.4609375 C15.5525 76.8009375 16.5425 76.1409375 17.5625 75.4609375 C18.01025603 73.36914808 18.01025603 73.36914808 17.92578125 70.9609375 C17.92513672 70.0740625 17.92449219 69.1871875 17.92382812 68.2734375 C17.90771484 67.3453125 17.89160156 66.4171875 17.875 65.4609375 C17.87822266 64.5328125 17.88144531 63.6046875 17.88476562 62.6484375 C18.14949837 57.52481094 18.14949837 57.52481094 15.5625 53.4609375 C12.4860426 53.14858858 12.4860426 53.14858858 8.875 53.1953125 C8.21669189 53.19339905 7.55838379 53.1914856 6.88012695 53.18951416 C5.4881146 53.188153 4.09608953 53.19184467 2.70410156 53.20019531 C0.57067411 53.2108965 -1.56191131 53.20029844 -3.6953125 53.1875 C-5.04687686 53.18882161 -6.3984407 53.19138403 -7.75 53.1953125 C-9.60044922 53.19869629 -9.60044922 53.19869629 -11.48828125 53.20214844 C-14.55819578 53.15323983 -14.55819578 53.15323983 -16.4375 55.4609375 Z M32.6875 57.8359375 C31.22256644 59.95195265 31.01218872 61.95085682 30.5625 64.4609375 C37.64219902 62.83702263 42.45813085 60.68361984 47.5625 55.4609375 C42.25479973 51.92247065 37.58332886 54.245663 32.6875 57.8359375 Z M49.5625 57.4609375 C48.9025 58.7809375 48.2425 60.1009375 47.5625 61.4609375 C50.5325 63.4409375 50.5325 63.4409375 53.5625 65.4609375 C53.8925 64.8009375 54.2225 64.1409375 54.5625 63.4609375 C53.62803465 61.42949109 52.63025224 59.42560163 51.5625 57.4609375 C50.9025 57.4609375 50.2425 57.4609375 49.5625 57.4609375 Z M38.375 65.4609375 C37.65957031 65.8321875 36.94414063 66.2034375 36.20703125 66.5859375 C35.39298828 67.0190625 35.39298828 67.0190625 34.5625 67.4609375 C34.8496949 71.19447114 35.09452866 73.78497889 37.25 76.8984375 C40.32065295 78.973203 41.92883823 79.14224908 45.5625 78.4609375 C49.16566022 75.14992541 50.11520524 72.2693562 50.5625 67.4609375 C45.90114372 63.42949423 43.88313154 62.57142587 38.375 65.4609375 Z M53.5625 69.4609375 C52.9025 72.4309375 52.2425 75.4009375 51.5625 78.4609375 C50.9025 78.4609375 50.2425 78.4609375 49.5625 78.4609375 C49.8925 79.4509375 50.2225 80.4409375 50.5625 81.4609375 C52.5425 81.9559375 52.5425 81.9559375 54.5625 82.4609375 C54.5625 78.1709375 54.5625 73.8809375 54.5625 69.4609375 C54.2325 69.4609375 53.9025 69.4609375 53.5625 69.4609375 Z M30.5625 70.4609375 C30.5625 74.4209375 30.5625 78.3809375 30.5625 82.4609375 C32.2125 81.8009375 33.8625 81.1409375 35.5625 80.4609375 C34.2425 77.1609375 32.9225 73.8609375 31.5625 70.4609375 C31.2325 70.4609375 30.9025 70.4609375 30.5625 70.4609375 Z M-4.4375 80.4609375 C-4.4375 86.4009375 -4.4375 92.3409375 -4.4375 98.4609375 C-4.1075 98.4609375 -3.7775 98.4609375 -3.4375 98.4609375 C-3.4375 92.5209375 -3.4375 86.5809375 -3.4375 80.4609375 C-3.7675 80.4609375 -4.0975 80.4609375 -4.4375 80.4609375 Z M40.5625 82.4609375 C44.5625 83.4609375 44.5625 83.4609375 44.5625 83.4609375 Z M26.5625 87.4609375 C25.43268012 89.82074559 25.43268012 89.82074559 24.8125 92.5234375 C24.57015625 93.42191406 24.3278125 94.32039063 24.078125 95.24609375 C23.52470985 97.24425141 23.52470985 97.24425141 23.5625 98.4609375 C28.5125 98.4609375 33.4625 98.4609375 38.5625 98.4609375 C38.2325 96.1509375 37.9025 93.8409375 37.5625 91.4609375 C35.9125 91.4609375 34.2625 91.4609375 32.5625 91.4609375 C32.2325 89.4809375 31.9025 87.5009375 31.5625 85.4609375 C29.52648719 85.4609375 28.23903575 86.38270745 26.5625 87.4609375 Z M53.5625 86.4609375 C53.2325 88.4409375 52.9025 90.4209375 52.5625 92.4609375 C50.9125 92.1309375 49.2625 91.8009375 47.5625 91.4609375 C47.2325 93.7709375 46.9025 96.0809375 46.5625 98.4609375 C51.1825 98.4609375 55.8025 98.4609375 60.5625 98.4609375 C60.459375 97.0378125 60.35625 95.6146875 60.25 94.1484375 C60.19199219 93.34792969 60.13398437 92.54742187 60.07421875 91.72265625 C59.46948993 89.04984719 58.75787752 88.07227159 56.5625 86.4609375 C55.5725 86.4609375 54.5825 86.4609375 53.5625 86.4609375 Z M40.5625 87.4609375 C40.8925 91.0909375 41.2225 94.7209375 41.5625 98.4609375 C42.2225 98.4609375 42.8825 98.4609375 43.5625 98.4609375 C43.8925 94.8309375 44.2225 91.2009375 44.5625 87.4609375 C43.2425 87.4609375 41.9225 87.4609375 40.5625 87.4609375 Z M-8.4375 102.4609375 C-7.31895414 106.18707903 -7.31895414 106.18707903 -4.4375 108.4609375 C-1.46331436 108.57008628 1.48781218 108.61827595 4.46264648 108.62207031 C5.84574005 108.62951767 5.84574005 108.62951767 7.2567749 108.63711548 C10.31572202 108.65175516 13.37461731 108.65854155 16.43359375 108.6640625 C18.55347191 108.66981177 20.67335004 108.67556952 22.79322815 108.68133545 C27.2411422 108.6918501 31.68903815 108.69768996 36.13696289 108.70117188 C41.84486095 108.70666239 47.55252115 108.73070043 53.26034451 108.75914383 C57.63972175 108.77773743 62.01904128 108.78297402 66.39845467 108.78450775 C68.50325892 108.78754143 70.608062 108.79559388 72.71282768 108.80869293 C75.65305746 108.8256875 78.59270046 108.82388951 81.53295898 108.81738281 C82.84454735 108.83120499 82.84454735 108.83120499 84.18263245 108.8453064 C88.52623386 108.94574759 88.52623386 108.94574759 92.30961704 107.12546921 C93.86318832 105.40868104 93.86318832 105.40868104 93.5625 102.4609375 C89.20261928 102.36203086 84.84333327 102.28945374 80.48266602 102.24121094 C78.99947739 102.22109991 77.51636801 102.19380676 76.03344727 102.15917969 C73.90100565 102.11063398 71.76961223 102.08796555 69.63671875 102.0703125 C67.71218872 102.0388916 67.71218872 102.0388916 65.7487793 102.00683594 C64.69730713 102.15668945 63.64583496 102.30654297 62.5625 102.4609375 C61.82918457 103.44658691 61.82918457 103.44658691 61.08105469 104.45214844 C59.5625 106.4609375 59.5625 106.4609375 56.25610352 106.97851562 C54.90145354 107.00489253 53.54622075 107.00799867 52.19140625 106.9921875 C51.4726683 106.9960144 50.75393036 106.99984131 50.01341248 107.00378418 C48.4945231 107.00650386 46.97558693 106.99913848 45.45678711 106.98242188 C43.13613916 106.96104013 40.81859754 106.98220099 38.49804688 107.0078125 C37.02082652 107.00516862 35.54360809 107.00004237 34.06640625 106.9921875 C33.37462784 107.00028442 32.68284943 107.00838135 31.97010803 107.01672363 C27.17166993 106.92374403 25.82165516 105.73979151 22.5625 102.4609375 C19.17836565 101.90974472 19.17836565 101.90974472 15.390625 102.0703125 C14.7082074 102.07597229 14.02578979 102.08163208 13.32269287 102.08746338 C11.15190238 102.10978114 8.98278794 102.15996242 6.8125 102.2109375 C5.3372635 102.23100874 3.86200101 102.24925843 2.38671875 102.265625 C-1.22189501 102.3096287 -4.82953381 102.37862167 -8.4375 102.4609375 Z M26.5625 102.4609375 C26.5625 102.7909375 26.5625 103.1209375 26.5625 103.4609375 C37.1225 103.4609375 47.6825 103.4609375 58.5625 103.4609375 C58.5625 103.1309375 58.5625 102.8009375 58.5625 102.4609375 C48.0025 102.4609375 37.4425 102.4609375 26.5625 102.4609375 Z " fill="#018380" transform="translate(20.4375,3.5390625)"/>
<path d="M0 0 C2.9375 1 2.9375 1 4.3125 3.5625 C4.51875 4.366875 4.725 5.17125 4.9375 6 C5.7625 5.690625 6.5875 5.38125 7.4375 5.0625 C12.27735449 4.97607403 13.91635937 7.09978553 17.30078125 10.3359375 C17.84089844 10.88507812 18.38101563 11.43421875 18.9375 12 C19.2675 12.33 19.5975 12.66 19.9375 13 C20.125 15.4375 20.125 15.4375 19.9375 18 C17.9375 20 17.9375 20 15.5625 20.3125 C12.48065707 19.94561394 11.15535231 19.13570963 8.9375 17 C8.9375 16.34 8.9375 15.68 8.9375 15 C7.9784375 14.566875 7.9784375 14.566875 7 14.125 C4.9375 13 4.9375 13 3.9375 11 C3.628125 11.969375 3.31875 12.93875 3 13.9375 C1.9375 17 1.9375 17 0.9375 18 C-1.5 18.1875 -1.5 18.1875 -4.0625 18 C-6.84059395 15.22190605 -6.36205703 13.43244797 -6.375 9.5625 C-6.39175781 8.40878906 -6.40851562 7.25507813 -6.42578125 6.06640625 C-6.0625 3 -6.0625 3 -4.734375 1.08984375 C-3.0625 0 -3.0625 0 0 0 Z M-2.0625 4 C-2.0625 4.99 -2.0625 5.98 -2.0625 7 C-1.4025 7 -0.7425 7 -0.0625 7 C-0.0625 6.01 -0.0625 5.02 -0.0625 4 C-0.7225 4 -1.3825 4 -2.0625 4 Z M7.9375 9 C8.9275 9.99 9.9175 10.98 10.9375 12 C10.6075 11.01 10.2775 10.02 9.9375 9 C9.2775 9 8.6175 9 7.9375 9 Z M-3.0625 11 C-2.7325 12.32 -2.4025 13.64 -2.0625 15 C-1.4025 13.68 -0.7425 12.36 -0.0625 11 C-1.0525 11 -2.0425 11 -3.0625 11 Z M13.9375 13 C13.9375 13.99 13.9375 14.98 13.9375 16 C14.5975 16 15.2575 16 15.9375 16 C15.6075 15.01 15.2775 14.02 14.9375 13 C14.6075 13 14.2775 13 13.9375 13 Z " fill="#018380" transform="translate(19.0625,12)"/>
<path d="M0 0 C3.29714793 0.32971479 4.6226839 0.6226839 7 3 C7 4.32 7 5.64 7 7 C8.65 7 10.3 7 12 7 C13.35439668 9.70879335 13.06501451 12.00933268 13 15 C11.02 15.33 9.04 15.66 7 16 C6.67 17.98 6.34 19.96 6 22 C3.6875 22.625 3.6875 22.625 1 23 C0.01 22.34 -0.98 21.68 -2 21 C-2.1875 18.375 -2.1875 18.375 -2 16 C-2.78375 16.04125 -3.5675 16.0825 -4.375 16.125 C-7 16 -7 16 -9 14 C-9.25 11.5 -9.25 11.5 -9 9 C-7 7 -7 7 -4.375 6.875 C-3.59125 6.91625 -2.8075 6.9575 -2 7 C-2.04125 6.21625 -2.0825 5.4325 -2.125 4.625 C-2 2 -2 2 0 0 Z M2 4 C0.70366379 5.06645115 0.70366379 5.06645115 0.9375 7.5625 C0.958125 8.366875 0.97875 9.17125 1 10 C-0.98 10 -2.96 10 -5 10 C-5 10.66 -5 11.32 -5 12 C-2.525 12.495 -2.525 12.495 0 13 C0.33 14.98 0.66 16.96 1 19 C1.66 19 2.32 19 3 19 C3.33 17.02 3.66 15.04 4 13 C5.98 12.67 7.96 12.34 10 12 C9.67 11.34 9.34 10.68 9 10 C7.02 10 5.04 10 3 10 C3 8.02 3 6.04 3 4 C2.67 4 2.34 4 2 4 Z " fill="#018380" transform="translate(97,23)"/>
<path d="M0 0 C2.125 4.625 2.125 4.625 1 8 C-1.109375 9.421875 -1.109375 9.421875 -3.75 10.75 C-4.61109375 11.19859375 -5.4721875 11.6471875 -6.359375 12.109375 C-9.41410796 13.13966955 -10.97405449 13.04864664 -14 12 C-15.5 9.6875 -15.5 9.6875 -16 7 C-14.55630427 3.72762301 -12.85934571 2.92569208 -9.6875 1.25 C-6.15748227 0.05338382 -3.68419041 -0.26957491 0 0 Z M-4 3 C-4.66 3.66 -5.32 4.32 -6 5 C-4.68 5 -3.36 5 -2 5 C-2 4.34 -2 3.68 -2 3 C-2.66 3 -3.32 3 -4 3 Z M-10 6 C-10.99 6.495 -10.99 6.495 -12 7 C-12 7.66 -12 8.32 -12 9 C-10.68 8.67 -9.36 8.34 -8 8 C-8.66 7.34 -9.32 6.68 -10 6 Z " fill="#018380" transform="translate(50,9)"/>
<path d="M0 0 C7.92 0 15.84 0 24 0 C24.33 0.66 24.66 1.32 25 2 C24.67 2.66 24.34 3.32 24 4 C16.08 4 8.16 4 0 4 C0 2.68 0 1.36 0 0 Z " fill="#018380" transform="translate(9,67)"/>
<path d="M0 0 C7.92 0 15.84 0 24 0 C24 0.99 24 1.98 24 3 C16.08 3 8.16 3 0 3 C0 2.01 0 1.02 0 0 Z " fill="#018380" transform="translate(9,74)"/>
<path d="M0 0 C3.63 0 7.26 0 11 0 C11.33 1.32 11.66 2.64 12 4 C7.71 4 3.42 4 -1 4 C-0.67 2.68 -0.34 1.36 0 0 Z " fill="#018380" transform="translate(10,60)"/>
</svg>
