<?xml version="1.0" encoding="UTF-8"?>
<svg version="1.1" xmlns="http://www.w3.org/2000/svg" width="121" height="120">
<path d="M0 0 C1.65 0 3.3 0 5 0 C5 4.95 5 9.9 5 15 C6.134375 14.96519531 7.26875 14.93039063 8.4375 14.89453125 C23.94316875 14.55591948 23.94316875 14.55591948 30 18 C34.77420067 23.01903148 35.35191723 26.48565449 35.28125 33.234375 C34.88814794 37.0998786 33.61907755 39.16856481 31 42 C26.83952635 45.15439548 23.13011279 45.48925835 18.0625 45.4375 C17.02706055 45.4674707 17.02706055 45.4674707 15.97070312 45.49804688 C10.83564979 45.49317953 7.94359015 44.21745005 4 41 C-0.82658813 34.34263706 -0.08663546 27.97046241 0 20 C-5.94 20 -11.88 20 -18 20 C-18.33 21.65 -18.66 23.3 -19 25 C-22.81665467 29.43557164 -25.54164734 31.77237475 -31.375 32.3125 C-36.50360124 31.8703792 -39.54141149 30.34032457 -43.3125 26.875 C-45.61149338 22.95819646 -46.19202373 19.5205586 -46 15 C-44.61932981 10.77677353 -42.42844666 7.65917087 -38.87109375 4.91796875 C-35.04451385 3.04062788 -31.11694445 3.27702439 -27 4 C-22.53428987 6.1922577 -20.12967843 8.50401221 -18 13 C-18 13.66 -18 14.32 -18 15 C-12.06 15 -6.12 15 0 15 C0 10.05 0 5.1 0 0 Z M-39 11 C-41.4915904 14.7373856 -41.45793285 16.57331583 -41 21 C-39.20437595 23.75329021 -37.94745078 25.52627461 -35 27 C-30.60733038 27.49728335 -28.69948825 27.53221932 -25.125 24.8125 C-22.9355211 21.91466027 -22 20.60496065 -22 17 C-23.37401357 12.95878361 -24.394821 11.37051776 -28.0625 9.125 C-32.77802778 7.31905319 -34.66276101 8.56030307 -39 11 Z M5 20 C4.91849256 22.06183633 4.8605806 24.12461349 4.8125 26.1875 C4.77769531 27.33605469 4.74289063 28.48460937 4.70703125 29.66796875 C5.10882025 34.23764898 6.64867365 36.81247079 10.0625 39.8125 C14.40444408 41.56775399 18.38230909 41.6723358 23 41 C26.24771257 39.37614371 28.19791385 38.01132601 30.4375 35.1875 C31.31325348 31.781792 30.89136765 29.38719708 30 26 C27.81008403 23.41702219 26.03168312 21.51584156 23 20 C21.62451844 19.91691362 20.24514204 19.89263984 18.8671875 19.90234375 C18.06152344 19.90556641 17.25585938 19.90878906 16.42578125 19.91210938 C15.58402344 19.92048828 14.74226563 19.92886719 13.875 19.9375 C12.60076172 19.94426758 12.60076172 19.94426758 11.30078125 19.95117188 C9.20049091 19.96297126 7.1002367 19.98090694 5 20 Z " fill="#018380" transform="translate(86,75)"/>
<path d="M0 0 C1.95803507 -0.05389087 3.91648909 -0.09274217 5.875 -0.125 C7.51082031 -0.15980469 7.51082031 -0.15980469 9.1796875 -0.1953125 C12 -0 12 -0 14 2 C14.25 5.5 14.25 5.5 14 9 C12 11 12 11 9.1796875 11.1953125 C8.08914062 11.17210937 6.99859375 11.14890625 5.875 11.125 C4.77929688 11.10695313 3.68359375 11.08890625 2.5546875 11.0703125 C1.71164063 11.04710937 0.86859375 11.02390625 0 11 C0 10.01 0 9.02 0 8 C-1.98 8.33 -3.96 8.66 -6 9 C-6.33 13.95 -6.66 18.9 -7 24 C-5.68 24 -4.36 24 -3 24 C-2.93941406 24.94101562 -2.87882812 25.88203125 -2.81640625 26.8515625 C-2.73261719 28.09679687 -2.64882812 29.34203125 -2.5625 30.625 C-2.48128906 31.85476562 -2.40007812 33.08453125 -2.31640625 34.3515625 C-2.03336056 37.61532388 -1.58961047 40.77943859 -1 44 C-2.98 44.495 -2.98 44.495 -5 45 C-8.03901852 39.17521449 -8.3540919 34.51791392 -8 28 C-8.99 28 -9.98 28 -11 28 C-9.71970241 38.10761253 -8.0741993 46.21033241 0 53 C7.93530997 58.59114655 14.24250158 59.8725219 24 59 C30.33320988 57.29490503 35.48323371 53.70496489 40 49 C40.495 48.01 40.495 48.01 41 47 C42.32 47.66 43.64 48.32 45 49 C43.60496839 54.27011942 40.34763318 57.01407835 36 60 C26.85410319 64.86549392 18.11468033 66.57409619 7.9375 63.875 C-1.40503853 60.70704345 -7.34074766 55.66143063 -12 47 C-12.3403125 46.39671875 -12.680625 45.7934375 -13.03125 45.171875 C-16.11202181 38.61097208 -15.24867488 31.07341895 -15 24 C-13.68 24 -12.36 24 -11 24 C-11.04640625 22.73542969 -11.0928125 21.47085937 -11.140625 20.16796875 C-11.17814212 18.50783609 -11.21454235 16.84767792 -11.25 15.1875 C-11.28351562 14.35412109 -11.31703125 13.52074219 -11.3515625 12.66210938 C-11.45021011 6.52129591 -11.45021011 6.52129591 -9.21875 3.9375 C-6.09562193 2.61786842 -3.34692376 2.80690824 0 3 C0 2.01 0 1.02 0 0 Z M5 4 C5 4.99 5 5.98 5 7 C6.65 6.67 8.3 6.34 10 6 C9.67 5.34 9.34 4.68 9 4 C7.68 4 6.36 4 5 4 Z " fill="#018380" transform="translate(71,0)"/>
<path d="M0 0 C1.65322266 0.01740234 1.65322266 0.01740234 3.33984375 0.03515625 C4.99693359 0.04869141 4.99693359 0.04869141 6.6875 0.0625 C7.54214844 0.07410156 8.39679688 0.08570313 9.27734375 0.09765625 C9.27734375 1.08765625 9.27734375 2.07765625 9.27734375 3.09765625 C11.23046875 2.93489583 13.18359375 2.77213542 15.13671875 2.609375 C17.27734375 3.09765625 17.27734375 3.09765625 19.52734375 5.09765625 C21.82935093 9.04395427 21.73497905 11.94200423 21.52734375 16.41015625 C21.50929687 17.15072266 21.49125 17.89128906 21.47265625 18.65429688 C21.42581712 20.46931335 21.35408164 22.28365791 21.27734375 24.09765625 C22.26734375 24.09765625 23.25734375 24.09765625 24.27734375 24.09765625 C24.35907311 26.61915835 24.41817748 29.13795542 24.46484375 31.66015625 C24.48998047 32.36462891 24.51511719 33.06910156 24.54101562 33.79492188 C24.61266679 38.9776894 23.59906973 42.46029807 21.27734375 47.09765625 C19.95734375 46.76765625 18.63734375 46.43765625 17.27734375 46.09765625 C17.41011719 45.55238281 17.54289062 45.00710937 17.6796875 44.4453125 C18.95523622 38.99862638 19.74698218 33.66645273 20.27734375 28.09765625 C19.28734375 28.09765625 18.29734375 28.09765625 17.27734375 28.09765625 C17.33535156 28.77570312 17.39335938 29.45375 17.453125 30.15234375 C17.8135139 37.58665201 16.72435206 43.03074005 12.27734375 49.09765625 C6.35675723 55.07357535 0.39209917 57.98561697 -8.03515625 58.47265625 C-15.30090946 58.29877498 -22.5775583 55.2427542 -27.72265625 50.09765625 C-28.21765625 48.61265625 -28.21765625 48.61265625 -28.72265625 47.09765625 C-27.40265625 46.43765625 -26.08265625 45.77765625 -24.72265625 45.09765625 C-23.73265625 45.75765625 -22.74265625 46.41765625 -21.72265625 47.09765625 C-21.72265625 47.75765625 -21.72265625 48.41765625 -21.72265625 49.09765625 C-20.77390625 49.40703125 -19.82515625 49.71640625 -18.84765625 50.03515625 C-15.72265625 51.09765625 -15.72265625 51.09765625 -13.72265625 52.09765625 C-6.58103094 52.83105548 -0.61074496 52.43343067 5.27734375 48.09765625 C12.56109239 41.4828233 12.70917793 33.33782668 13.27734375 24.09765625 C14.26734375 24.09765625 15.25734375 24.09765625 16.27734375 24.09765625 C15.78234375 16.67265625 15.78234375 16.67265625 15.27734375 9.09765625 C13.29734375 8.76765625 11.31734375 8.43765625 9.27734375 8.09765625 C9.27734375 9.08765625 9.27734375 10.07765625 9.27734375 11.09765625 C7.50726661 11.17879731 5.73612277 11.2369113 3.96484375 11.28515625 C2.97871094 11.31996094 1.99257812 11.35476563 0.9765625 11.390625 C-1.72265625 11.09765625 -1.72265625 11.09765625 -3.59375 9.8125 C-4.72265625 8.09765625 -4.72265625 8.09765625 -4.47265625 4.47265625 C-3.50668325 0.12577773 -3.50668325 0.12577773 0 0 Z M0.27734375 4.09765625 C0.60734375 5.08765625 0.93734375 6.07765625 1.27734375 7.09765625 C2.26734375 7.09765625 3.25734375 7.09765625 4.27734375 7.09765625 C4.27734375 6.10765625 4.27734375 5.11765625 4.27734375 4.09765625 C2.95734375 4.09765625 1.63734375 4.09765625 0.27734375 4.09765625 Z " fill="#018380" transform="translate(96.72265625,-0.09765625)"/>
<path d="M0 0 C5.0633407 5.94191123 6.24204248 11.375662 6 19 C5.67 19.66 5.34 20.32 5 21 C3.68 20.67 2.36 20.34 1 20 C0.91363281 19.19175781 0.82726562 18.38351563 0.73828125 17.55078125 C-0.0957197 10.74980761 -0.0957197 10.74980761 -3.375 4.875 C-4.24125 4.25625 -5.1075 3.6375 -6 3 C-6.598125 2.566875 -7.19625 2.13375 -7.8125 1.6875 C-12.60085231 0.18258927 -16.66801465 0.48769794 -21.25 2.25 C-23.90279745 3.93814383 -25.90651082 5.66495438 -28 8 C-31.93673644 6.68775452 -34.22719294 5.08089673 -37 2 C-36.34 0.68 -35.68 -0.64 -35 -2 C-34.401875 -1.67 -33.80375 -1.34 -33.1875 -1 C-30.94613529 0.20787988 -30.94613529 0.20787988 -28 0 C-25.9934562 -1.32346506 -23.99371825 -2.65729179 -22 -4 C-14.21546432 -7.11381427 -6.51337612 -4.67799179 0 0 Z " fill="#018380" transform="translate(65,62)"/>
<path d="M0 0 C-0.33 1.65 -0.66 3.3 -1 5 C-1.59167969 4.97679687 -2.18335937 4.95359375 -2.79296875 4.9296875 C-9.1695385 4.71674119 -9.1695385 4.71674119 -15 7 C-18.72179778 10.69007791 -20.75412988 13.910104 -21.375 19.1875 C-20.57437061 27.32723214 -14.78136874 32.66847839 -9 38 C-9.66 38.99 -10.32 39.98 -11 41 C-17.24030829 39.93257885 -20.68531576 34.65178277 -24.4375 29.9375 C-27.29133901 24.50161617 -26.6969435 17.91690812 -26 12 C-23.45184677 6.41366407 -18.97407541 2.64356799 -13.625 -0.3125 C-9.005034 -1.5224911 -4.56611665 -1.52203888 0 0 Z " fill="#018380" transform="translate(27,58)"/>
<path d="M0 0 C5.66129431 4.69766975 10.85228904 9.74723372 16 15 C16.45890625 14.566875 16.9178125 14.13375 17.390625 13.6875 C18.00421875 13.130625 18.6178125 12.57375 19.25 12 C19.85328125 11.443125 20.4565625 10.88625 21.078125 10.3125 C23 9 23 9 27 9 C27 13 27 13 25.171875 15.39453125 C24.37265625 16.19246094 23.5734375 16.99039063 22.75 17.8125 C21.96109375 18.62332031 21.1721875 19.43414062 20.359375 20.26953125 C18 22 18 22 16.09790039 21.82421875 C11.82862473 20.14691459 8.87397865 16.38516909 5.6875 13.1875 C4.93404297 12.46240234 4.18058594 11.73730469 3.40429688 10.99023438 C2.69724609 10.28576172 1.99019531 9.58128906 1.26171875 8.85546875 C0.61162842 8.21246826 -0.03846191 7.56946777 -0.70825195 6.90698242 C-2 5 -2 5 -1.76635742 2.8215332 C-1 1 -1 1 0 0 Z " fill="#018380" transform="translate(19,98)"/>
<path d="M0 0 C2.375 1.625 2.375 1.625 4 4 C4.60975382 7.65852292 4.44543026 9.30512879 2.4375 12.4375 C0 14 0 14 -3.5625 14 C-7 13 -7 13 -9 11.375 C-10.45331917 7.92336696 -9.92604949 5.57190516 -9 2 C-5.50875983 -0.32749345 -4.10777749 -0.50299316 0 0 Z M-5 5 C-4.67 6.32 -4.34 7.64 -4 9 C-3.01 9 -2.02 9 -1 9 C-0.67 8.01 -0.34 7.02 0 6 C-1.65 5.67 -3.3 5.34 -5 5 Z " fill="#018380" transform="translate(57,86)"/>
<path d="M0 0 C0 1.65 0 3.3 0 5 C-1.670625 5.2784375 -1.670625 5.2784375 -3.375 5.5625 C-4.57125 6.036875 -5.7675 6.51125 -7 7 C-8.54086322 10.51400668 -8.54086322 10.51400668 -9 14 C-10.32 14 -11.64 14 -13 14 C-13.49882898 9.8098366 -13.19920015 8.28773354 -10.75 4.75 C-6.90874853 0.90874853 -5.44178364 0 0 0 Z " fill="#018380" transform="translate(21,64)"/>
<path d="M0 0 C1.98 1.65 3.96 3.3 6 5 C5.67 6.32 5.34 7.64 5 9 C4.01 9 3.02 9 2 9 C2 8.34 2 7.68 2 7 C1.360625 6.731875 0.72125 6.46375 0.0625 6.1875 C-2 5 -2 5 -3 2 C-2.01 1.34 -1.02 0.68 0 0 Z " fill="#018380" transform="translate(37,73)"/>
<path d="M0 0 C1.65 0 3.3 0 5 0 C5 1.98 5 3.96 5 6 C3.35 6 1.7 6 0 6 C0 4.02 0 2.04 0 0 Z " fill="#018380" transform="translate(44,71)"/>
<path d="M0 0 C2.31 0 4.62 0 7 0 C7 1.32 7 2.64 7 4 C4.69 4 2.38 4 0 4 C0 2.68 0 1.36 0 0 Z " fill="#018380" transform="translate(32,83)"/>
<path d="M0 0 C1.65 0 3.3 0 5 0 C5 1.32 5 2.64 5 4 C3.35 4 1.7 4 0 4 C0 2.68 0 1.36 0 0 Z " fill="#018380" transform="translate(86,68)"/>
</svg>
