<svg width="93" height="116" viewBox="0 0 93 116" fill="none" xmlns="http://www.w3.org/2000/svg">
<path d="M72.3101 77.9027L65.2118 85.6377L65.1939 85.6153L63.7179 87.2251L43.1298 64.7912L37.9279 59.1188C35.6379 56.6211 34.3766 53.3029 34.3766 49.7739C34.3766 46.245 35.6379 42.9267 37.9279 40.4291C40.294 37.8507 43.3981 36.5638 46.5022 36.5638C49.6063 36.5638 52.7105 37.8507 55.0765 40.4291C57.3666 42.9267 58.6279 46.245 58.6279 49.7739C58.6279 53.3029 57.3666 56.6211 55.0765 59.1188L49.4587 65.2441L54.9826 71.2662L60.6004 65.1454C64.3665 61.0425 66.4374 55.5853 66.4374 49.7829C66.4374 43.976 64.362 38.5233 60.6004 34.4159C56.8343 30.3085 51.8248 28.0485 46.5022 28.0485C41.1796 28.0485 36.1701 30.3085 32.4041 34.4159C24.6349 42.8864 24.6349 56.6749 32.4041 65.1454L45.6122 79.5394L58.1941 93.2472L55.2376 96.4668L46.538 86.9874L29.4476 68.365C20.0458 58.1188 20.0458 41.4425 29.4476 31.1918C34.0053 26.2235 40.0615 23.4882 46.5022 23.4882C52.943 23.4882 58.9991 26.2235 63.5569 31.1918C68.1102 36.1557 70.6194 42.7563 70.6194 49.7784C70.6194 56.8005 68.1102 63.4011 63.5569 68.365L57.9391 74.4858L63.7358 80.8039L69.3536 74.6786C75.4589 68.0242 78.818 59.1816 78.818 49.7739C78.818 40.3663 75.4544 31.5192 69.3536 24.8693C63.2483 18.2193 55.1347 14.5558 46.4978 14.5558C37.8653 14.5558 29.7473 18.2193 23.6419 24.8693C11.0422 38.604 11.0422 60.9483 23.6419 74.6786L36.85 89.0725H36.8545L49.4364 102.78L46.4799 106L45.0218 104.408L20.6899 77.8982C13.7974 70.3873 10 60.3968 10 49.7739C10 39.1511 13.7974 29.1605 20.6899 21.6497C27.5825 14.1388 36.7516 10 46.5022 10C56.2529 10 65.4176 14.1388 72.3101 21.6497C79.2027 29.1605 83 39.1511 83 49.7739C83 60.3968 79.2027 70.3873 72.3101 77.8982V77.9027ZM52.1201 43.6531C49.0204 40.2766 43.9796 40.2766 40.8845 43.6531C37.7848 47.0297 37.7848 52.5227 40.8845 55.8992L46.5022 62.02L52.1201 55.8992C55.2197 52.5227 55.2197 47.0297 52.1201 43.6531Z" fill="#121212"/>
</svg>
