<?xml version="1.0" encoding="UTF-8"?>
<svg version="1.1" xmlns="http://www.w3.org/2000/svg" width="121" height="120">
<path d="M0 0 C6.06104487 4.27731395 10.05115946 10.57488326 11.6015625 17.8359375 C12.97128696 30.65808032 7.87263522 39.65142432 1.4140625 50.3984375 C0.75986328 51.50251953 0.10566406 52.60660156 -0.56835938 53.74414062 C-2.17079189 56.44605238 -3.78091372 59.14304281 -5.3984375 61.8359375 C-4.72619141 61.75577393 -4.05394531 61.67561035 -3.36132812 61.59301758 C3.25534587 60.88565046 9.48696447 60.84738531 16.1015625 61.5234375 C17.01284912 61.61447754 17.92413574 61.70551758 18.86303711 61.79931641 C27.27890379 62.74150878 36.020248 63.87394443 41.6015625 70.8359375 C42.13500977 74.1640625 42.13500977 74.1640625 42.16796875 78.0859375 C42.17416733 78.78106445 42.18036591 79.47619141 42.18675232 80.19238281 C42.19383823 81.65818892 42.19069772 83.1240757 42.17797852 84.58984375 C42.16410156 86.82963339 42.19820062 89.06525008 42.23632812 91.3046875 C42.23727933 92.73177185 42.23542043 94.15886142 42.23046875 95.5859375 C42.23119385 96.88015625 42.23191895 98.174375 42.23266602 99.5078125 C41.6015625 102.8359375 41.6015625 102.8359375 39.25512695 105.2121582 C36.29010899 107.02652332 33.56281194 108.05267608 30.2265625 109.0234375 C29.14632812 109.34699219 28.06609375 109.67054687 26.953125 110.00390625 C9.39953877 114.36161472 -13.12076245 114.04394361 -29.3984375 105.8359375 C-34.03614396 105.95485305 -37.48558793 108.55937048 -41.3984375 110.8359375 C-47.97388974 112.97710367 -55.83632211 112.85059782 -62.2109375 110.2109375 C-69.19118027 106.57565736 -74.22458451 102.13406546 -77.5078125 94.8671875 C-79.91169199 86.68556257 -79.82150984 77.76606273 -76.0859375 70.0234375 C-74.88811864 67.94257544 -73.65488067 65.88193542 -72.3984375 63.8359375 C-71.62050322 62.48826283 -70.84739083 61.13779768 -70.078125 59.78515625 C-68.27084623 56.61713952 -66.44234875 53.46278348 -64.59765625 50.31640625 C-62.2645389 46.33204628 -59.95968998 42.33253239 -57.66796875 38.32421875 C-35.62029885 -0.22104682 -35.62029885 -0.22104682 -24.75 -3.68359375 C-15.61858762 -5.54931422 -8.13412581 -4.57142163 0 0 Z M-34.3984375 10.8359375 C-35.78209787 12.88935904 -37.09757177 14.98992078 -38.3515625 17.125 C-38.69725281 17.71010345 -39.04294312 18.29520691 -39.39910889 18.89804077 C-40.12185329 20.12459367 -40.84099289 21.35327734 -41.55664062 22.58398438 C-42.65203884 24.46712872 -43.75859505 26.34334846 -44.8671875 28.21875 C-48.58522853 34.31206013 -48.58522853 34.31206013 -51.3984375 40.8359375 C-50.31949219 41.43019531 -49.24054687 42.02445313 -48.12890625 42.63671875 C-46.61432494 43.47349081 -45.1000245 44.31077136 -43.5859375 45.1484375 C-42.78800781 45.58978027 -41.99007812 46.03112305 -41.16796875 46.48583984 C-34.18956548 50.36227764 -27.28556783 54.3602767 -20.41870117 58.4309082 C-19.65920166 58.876521 -18.89970215 59.32213379 -18.1171875 59.78125 C-17.11075195 60.37703857 -17.11075195 60.37703857 -16.08398438 60.98486328 C-14.4155878 61.98617983 -14.4155878 61.98617983 -12.3984375 61.8359375 C-8.85272265 55.71480531 -5.33835058 49.57687265 -1.86035156 43.41699219 C-0.99415755 41.88769976 -0.12304546 40.36114767 0.75878906 38.84082031 C4.81677023 31.83379577 7.04681863 25.99220904 5.6015625 17.8359375 C3.7697488 11.65490529 -0.03925001 7.33445075 -5.3984375 3.8359375 C-16.60068383 -1.50892513 -26.41921551 2.3214606 -34.3984375 10.8359375 Z M-54.3984375 45.8359375 C-57.11921216 50.13749744 -59.77418781 54.4751271 -62.3984375 58.8359375 C-62.84203613 59.56893066 -63.28563477 60.30192383 -63.74267578 61.05712891 C-65.12827217 63.36743787 -66.48478971 65.69284224 -67.8359375 68.0234375 C-68.27276855 68.74644043 -68.70959961 69.46944336 -69.15966797 70.21435547 C-72.60801213 76.25884328 -74.30349251 82.45538786 -72.86865234 89.40014648 C-70.90416939 96.11541133 -67.95981574 100.16984211 -61.8359375 103.6484375 C-55.65360217 106.52563627 -49.6112642 107.22609975 -43.06640625 105.06640625 C-39.15928055 103.24694697 -36.17640104 101.1762848 -33.3984375 97.8359375 C-32.83909141 94.91046749 -32.83909141 94.91046749 -32.96484375 91.6796875 C-32.9503418 89.89884766 -32.9503418 89.89884766 -32.93554688 88.08203125 C-32.95247416 85.58460589 -32.97330764 83.08720395 -32.99804688 80.58984375 C-32.98161133 78.80900391 -32.98161133 78.80900391 -32.96484375 76.9921875 C-32.97946655 75.36506836 -32.97946655 75.36506836 -32.99438477 73.70507812 C-32.3984375 70.8359375 -32.3984375 70.8359375 -30.07006836 68.52929688 C-27.24276929 66.73727034 -24.6140466 65.73331679 -21.3984375 64.8359375 C-24.84891868 61.94790607 -28.32296832 59.6094406 -32.25 57.41796875 C-33.34828125 56.80373047 -34.4465625 56.18949219 -35.578125 55.55664062 C-36.71507812 54.92693359 -37.85203125 54.29722656 -39.0234375 53.6484375 C-40.168125 53.00712891 -41.3128125 52.36582031 -42.4921875 51.70507812 C-48.27296467 48.38911274 -48.27296467 48.38911274 -54.3984375 45.8359375 Z M-27.3984375 72.8359375 C-26.19352094 76.45068717 -25.47664463 76.89043576 -22.1484375 78.5859375 C-14.65046555 81.2433215 -8.62659929 77.63802708 -1.83691406 74.50488281 C0.65801877 73.31037271 3.13290922 72.08370652 5.6015625 70.8359375 C6.81376194 70.2329922 8.02599421 69.6301129 9.23828125 69.02734375 C10.40810547 68.43759766 10.40810547 68.43759766 11.6015625 67.8359375 C11.6015625 67.5059375 11.6015625 67.1759375 11.6015625 66.8359375 C-1.98690596 66.49337107 -14.88993969 66.89872425 -27.3984375 72.8359375 Z M16.83984375 71.2421875 C15.72158203 71.73847656 14.60332031 72.23476562 13.45117188 72.74609375 C12.28392578 73.27074219 11.11667969 73.79539062 9.9140625 74.3359375 C8.73521484 74.86058594 7.55636719 75.38523437 6.34179688 75.92578125 C3.42614777 77.22424846 0.51289019 78.52781677 -2.3984375 79.8359375 C-2.3984375 80.1659375 -2.3984375 80.4959375 -2.3984375 80.8359375 C17.82001636 81.5582333 17.82001636 81.5582333 36.6015625 74.8359375 C34.3983371 71.5310994 33.77588649 71.26934839 30.1640625 70.1484375 C29.38160156 69.89707031 28.59914063 69.64570312 27.79296875 69.38671875 C23.40218766 68.28315345 20.85738319 69.44755059 16.83984375 71.2421875 Z M-27.3984375 81.8359375 C-27.3984375 87.7759375 -27.3984375 93.7159375 -27.3984375 99.8359375 C-16.62801404 105.22114923 -8.19463394 106.22610013 3.7265625 106.2109375 C4.91056641 106.21077637 6.09457031 106.21061523 7.31445312 106.21044922 C17.26768975 106.08134525 28.07745257 105.51867745 36.6015625 99.8359375 C37.01584596 97.90517272 37.01584596 97.90517272 36.89453125 95.703125 C36.88486328 94.89746094 36.87519531 94.09179688 36.86523438 93.26171875 C36.84009766 92.41996094 36.81496094 91.57820313 36.7890625 90.7109375 C36.77552734 89.86144531 36.76199219 89.01195313 36.74804688 88.13671875 C36.71264469 86.03618913 36.65883651 83.93598457 36.6015625 81.8359375 C35.54324219 82.1246875 34.48492187 82.4134375 33.39453125 82.7109375 C15.08945388 87.32364456 -5.16771034 88.3250644 -23.3984375 82.8359375 C-24.7184375 82.5059375 -26.0384375 82.1759375 -27.3984375 81.8359375 Z " fill="#ffffff" transform="translate(79.3984375,6.1640625)"/>
<path d="M0 0 C0.33 1.32 0.66 2.64 1 4 C0.06027344 4.59748047 0.06027344 4.59748047 -0.8984375 5.20703125 C-1.71570312 5.73683594 -2.53296875 6.26664063 -3.375 6.8125 C-4.18710937 7.33457031 -4.99921875 7.85664063 -5.8359375 8.39453125 C-8.23350241 9.98437197 -8.23350241 9.98437197 -10 13 C-11.65 12.67 -13.3 12.34 -15 12 C-14.58443583 7.15175132 -12.62551755 5.11963138 -9 2 C-5.92678462 -0.01679759 -3.64626491 -0.20257027 0 0 Z " fill="#ffffff" transform="translate(61,11)"/>
<path d="M0 0 C2.0625 0.4375 2.0625 0.4375 4 1 C3.67 2.65 3.34 4.3 3 6 C1.35 5.67 -0.3 5.34 -2 5 C-1.125 1.125 -1.125 1.125 0 0 Z " fill="#ffffff" transform="translate(65,10)"/>
</svg>
