<?xml version="1.0" encoding="UTF-8"?>
<svg version="1.1" xmlns="http://www.w3.org/2000/svg" width="121" height="120">
<path d="M0 0 C2.81256281 -0.02684312 5.62487241 -0.04676188 8.4375 -0.0625 C9.23994141 -0.07087891 10.04238281 -0.07925781 10.86914062 -0.08789062 C12.91295221 -0.0965143 14.95683902 -0.0522815 17 0 C18 1 18 1 18.09765625 3.72265625 C18.08605469 4.82480469 18.07445312 5.92695313 18.0625 7.0625 C18.05347656 8.16722656 18.04445312 9.27195312 18.03515625 10.41015625 C18.02355469 11.26480469 18.01195312 12.11945312 18 13 C18.804375 13.144375 19.60875 13.28875 20.4375 13.4375 C23 14 23 14 24 15 C24.04063832 16.66617115 24.042721 18.33388095 24 20 C25.11072876 19.95286865 25.11072876 19.95286865 26.24389648 19.90478516 C29.64144592 19.77905806 33.0385046 19.70171027 36.4375 19.625 C38.18450195 19.54958984 38.18450195 19.54958984 39.96679688 19.47265625 C48.09530962 19.33527294 52.87470156 20.61025639 59 26 C59.91910156 26.80179688 60.83820313 27.60359375 61.78515625 28.4296875 C68.69414817 35.84826201 73.03530688 43.72630735 77 53 C77.38285156 53.87398437 77.76570313 54.74796875 78.16015625 55.6484375 C81.43635512 64.57798419 81.65236522 76.59690605 78.4375 85.5625 C76.15399046 90.32524846 72.94903659 94.49076331 69 98 C67.515 98.495 67.515 98.495 66 99 C66.33 99.66 66.66 100.32 67 101 C67.12432618 103.84504568 67.1851641 106.65487152 67.1875 109.5 C67.19974609 110.28503906 67.21199219 111.07007812 67.22460938 111.87890625 C67.22986254 113.92063726 67.1222018 115.96192251 67 118 C64.53904597 120.46095403 63.17060769 120.23852801 59.81228638 120.25994873 C58.73139236 120.25151947 58.73139236 120.25151947 57.62866211 120.24291992 C56.86919785 120.24481827 56.10973358 120.24671661 55.32725525 120.24867249 C52.81051393 120.25238496 50.29405953 120.24167036 47.77734375 120.23046875 C46.03381891 120.22927721 44.29029342 120.22882373 42.54676819 120.2290802 C38.89075713 120.22751457 35.23484388 120.21921823 31.57885742 120.20581055 C26.88198433 120.18880801 22.1852187 120.18499651 17.48831844 120.18575573 C13.88793402 120.18548441 10.2875733 120.18000962 6.68719673 120.17275429 C4.95476015 120.16956233 3.22232088 120.16759899 1.48988152 120.16686058 C-0.92614489 120.16470328 -3.34205503 120.15597277 -5.75805664 120.14526367 C-6.48067688 120.14571686 -7.20329712 120.14617004 -7.94781494 120.14663696 C-12.88552496 120.11447504 -12.88552496 120.11447504 -14 119 C-14.203125 116.78515625 -14.203125 116.78515625 -14.25 114.0625 C-14.27578125 113.16660156 -14.3015625 112.27070312 -14.328125 111.34765625 C-14.21984375 110.57292969 -14.1115625 109.79820313 -14 109 C-10.91111478 106.94074319 -10.29064073 106.7609626 -6.8125 106.875 C-5.554375 106.91625 -4.29625 106.9575 -3 107 C-3.061875 105.576875 -3.061875 105.576875 -3.125 104.125 C-3 101 -3 101 -1 99 C1.04711914 98.75708008 1.04711914 98.75708008 3.53515625 98.76953125 C4.42654297 98.77146484 5.31792969 98.77339844 6.23632812 98.77539062 C7.16896484 98.78763672 8.10160156 98.79988281 9.0625 98.8125 C10.46725586 98.8134668 10.46725586 98.8134668 11.90039062 98.81445312 C18.85980776 98.85980776 18.85980776 98.85980776 20 100 C20.04092937 102.33297433 20.04241723 104.66705225 20 107 C22.97 107 25.94 107 29 107 C29 101.72 29 96.44 29 91 C23.39 91 17.78 91 12 91 C11.67 89.68 11.34 88.36 11 87 C12 86 12 86 15.81640625 85.90234375 C17.39846682 85.90901911 18.98051159 85.92098125 20.5625 85.9375 C21.36880859 85.94201172 22.17511719 85.94652344 23.00585938 85.95117188 C25.00393756 85.96299482 27.00197783 85.98093086 29 86 C29 85.01 29 84.02 29 83 C16.46 83 3.92 83 -9 83 C-9 83.99 -9 84.98 -9 86 C-4.05 86 0.9 86 6 86 C6.33 87.32 6.66 88.64 7 90 C4.96519016 92.03480984 0.91279983 91.18507583 -1.875 91.1875 C-2.60847656 91.19974609 -3.34195312 91.21199219 -4.09765625 91.22460938 C-7.93563514 91.23509566 -9.73347074 91.17768617 -13 89 C-13.36328125 86.90625 -13.36328125 86.90625 -13.3125 84.5 C-13.30863281 83.7059375 -13.30476562 82.911875 -13.30078125 82.09375 C-13 80 -13 80 -11 78 C-7.98691049 77.82453518 -5.06689546 77.76872555 -2.0546875 77.8046875 C-0.72716965 77.80893234 -0.72716965 77.80893234 0.62716675 77.81326294 C3.45991412 77.8244776 6.29234784 77.8495843 9.125 77.875 C11.04296419 77.88502815 12.96093333 77.89415428 14.87890625 77.90234375 C19.58605876 77.92442111 24.29297616 77.95895955 29 78 C29.495 76.515 29.495 76.515 30 75 C33.11386082 73.44306959 36.39744932 73.77432805 39.8125 73.75 C40.52470703 73.729375 41.23691406 73.70875 41.97070312 73.6875 C46.53002725 73.65375847 49.37526106 74.20396532 53 77 C54.8125 79.1875 54.8125 79.1875 56 81 C59.51426771 76.46073755 59.65873999 72.50136913 59 67 C57.74963931 61.15195522 57.74963931 61.15195522 54.34179688 56.41040039 C51.27405317 54.56278202 49.05346228 54.56939687 45.484375 54.48828125 C44.23398438 54.45283203 42.98359375 54.41738281 41.6953125 54.38085938 C40.39335938 54.35830078 39.09140625 54.33574219 37.75 54.3125 C35.77386719 54.26125977 35.77386719 54.26125977 33.7578125 54.20898438 C30.50529322 54.12649294 27.25304404 54.0573433 24 54 C24.02320313 54.69867188 24.04640625 55.39734375 24.0703125 56.1171875 C24.08835938 57.02726562 24.10640625 57.93734375 24.125 58.875 C24.14820313 59.77992187 24.17140625 60.68484375 24.1953125 61.6171875 C24 64 24 64 22 66 C18.875 66.125 18.875 66.125 16 66 C16 68.64 16 71.28 16 74 C13.39820337 75.30089831 11.4030812 75.16840078 8.5 75.1875 C7.5203125 75.20167969 6.540625 75.21585937 5.53125 75.23046875 C3 75 3 75 1 73 C0.875 69.375 0.875 69.375 1 66 C-2.69418201 67.231394 -4.35109746 69.20791354 -7 72 C-10.45925163 70.7508258 -13.14693203 69.32472205 -16 67 C-15.835 65.906875 -15.67 64.81375 -15.5 63.6875 C-15.06907974 60.50946305 -14.9157639 57.80024299 -15.25 54.625 C-14.90370302 50.9888817 -13.62506764 49.4831721 -11 47 C-9.35 47 -7.7 47 -6 47 C-6 42.38 -6 37.76 -6 33 C-4.68 33 -3.36 33 -2 33 C-1.93941406 34.28777344 -1.87882812 35.57554688 -1.81640625 36.90234375 C-1.73201753 38.58074159 -1.6473687 40.25912636 -1.5625 41.9375 C-1.52318359 42.78763672 -1.48386719 43.63777344 -1.44335938 44.51367188 C-1.40146484 45.32255859 -1.35957031 46.13144531 -1.31640625 46.96484375 C-1.27974854 47.7137085 -1.24309082 48.46257324 -1.20532227 49.23413086 C-1.18228937 51.02461326 -1.18228937 51.02461326 0 52 C1.48638992 52.15655027 2.97949127 52.25066943 4.47265625 52.31640625 C5.82133789 52.37924805 5.82133789 52.37924805 7.19726562 52.44335938 C8.14279297 52.48267578 9.08832031 52.52199219 10.0625 52.5625 C11.01189453 52.60568359 11.96128906 52.64886719 12.93945312 52.69335938 C15.29281353 52.79979276 17.64628354 52.90181008 20 53 C20 50.69 20 48.38 20 46 C19.01 45.67 18.02 45.34 17 45 C14.69074254 41.96150334 14.59242368 38.67650836 14.66796875 34.93359375 C15 33 15 33 16.9375 30.625 C19.97947537 27.23656225 19.97947537 27.23656225 20 18 C12.74 18 5.48 18 -2 18 C-2 21.63 -2 25.26 -2 29 C-3.32 29 -4.64 29 -6 29 C-6.05384521 26.70858714 -6.09272087 24.41681812 -6.125 22.125 C-6.14820313 20.84882813 -6.17140625 19.57265625 -6.1953125 18.2578125 C-6 15 -6 15 -4 13 C-3.01 13 -2.02 13 -1 13 C-1.01160156 12.22914062 -1.02320313 11.45828125 -1.03515625 10.6640625 C-1.04869141 9.15972656 -1.04869141 9.15972656 -1.0625 7.625 C-1.07410156 6.62726562 -1.08570313 5.62953125 -1.09765625 4.6015625 C-1 2 -1 2 0 0 Z M4 4 C4 6.97 4 9.94 4 13 C7.3 13 10.6 13 14 13 C14 10.03 14 7.06 14 4 C10.7 4 7.4 4 4 4 Z M24 25 C24 25.33 24 25.66 24 26 C24.61488281 26.15855469 25.22976562 26.31710938 25.86328125 26.48046875 C32.44827586 28.38140021 32.44827586 28.38140021 35.0625 31.3125 C36.68938793 35.97624541 36.58009787 38.74312128 34.5 43.25 C31.14656459 46.93877895 28.84788413 47.19201931 24 48 C24 48.66 24 49.32 24 50 C24.91289795 50.0093457 25.8257959 50.01869141 26.76635742 50.02832031 C30.16816048 50.07245181 33.56872167 50.134114 36.9699707 50.20751953 C38.4392545 50.23566611 39.90868795 50.25691209 41.37817383 50.27099609 C43.49638114 50.2925153 45.61280153 50.33920334 47.73046875 50.390625 C49.00301514 50.41157227 50.27556152 50.43251953 51.58666992 50.45410156 C55.54200293 51.08668325 57.19373022 52.19405174 60 55 C63.53318635 61.9955065 65.68074538 70.2763806 63.421875 77.96875 C62.0810769 81.33500907 60.32518358 84.2319243 58 87 C60.475 90.96 60.475 90.96 63 95 C68.32872892 92.33563554 71.63929037 89.11091607 74.05078125 83.59765625 C78.40909684 70.1922211 74.58731514 58.14680431 68.47338867 45.95239258 C64.00821808 37.62496479 57.55107172 29.32793969 49 25 C46.10565497 24.5910938 46.10565497 24.5910938 43.04296875 24.70703125 C41.93115234 24.71669922 40.81933594 24.72636719 39.67382812 24.73632812 C38.52333984 24.76146484 37.37285156 24.78660156 36.1875 24.8125 C35.01767578 24.82603516 33.84785156 24.83957031 32.64257812 24.85351562 C29.761248 24.88879722 26.88086096 24.9380972 24 25 Z M20 33 C19.02131847 35.86076138 18.77864889 37.38702769 19.8125 40.25 C20.89399368 42.15074924 20.89399368 42.15074924 23 43 C27.13064626 43.37615126 27.13064626 43.37615126 30.875 41.875 C32.52854531 39.11909116 32.39365568 37.14924548 32 34 C31 32 31 32 29 31 C24.92205575 30.57521414 23.46923881 30.68717413 20 33 Z M-9 52 C-9.33 52.99 -9.66 53.98 -10 55 C-7.17909702 58.29735244 -4.63064076 60.70468481 -0.26611328 61.49511719 C2.82049281 61.58915629 5.85321179 61.52433239 8.9375 61.375 C10.53561523 61.33439453 10.53561523 61.33439453 12.16601562 61.29296875 C14.77946823 61.22265164 17.38865175 61.12430438 20 61 C20 60.01 20 59.02 20 58 C19.40050537 57.99589111 18.80101074 57.99178223 18.18334961 57.98754883 C15.433771 57.95439581 12.68634523 57.88373253 9.9375 57.8125 C8.52307617 57.80379883 8.52307617 57.80379883 7.08007812 57.79492188 C0.41116527 57.5857922 -2.91453415 56.3264411 -8 52 C-8.33 52 -8.66 52 -9 52 Z M-10 62 C-10 62.99 -10 63.98 -10 65 C-8.68 65 -7.36 65 -6 65 C-6.66 64.01 -7.32 63.02 -8 62 C-8.66 62 -9.32 62 -10 62 Z M6 66 C6 67.32 6 68.64 6 70 C7.98 70 9.96 70 12 70 C12 68.68 12 67.36 12 66 C10.02 66 8.04 66 6 66 Z M33 79 C32.67 89.56 32.34 100.12 32 111 C11.21 111.495 11.21 111.495 -10 112 C-10 113.32 -10 114.64 -10 116 C13.76 116 37.52 116 62 116 C62.22151692 101.48657347 62.22151692 101.48657347 56.125 90.1875 C55.29162109 88.88329102 55.29162109 88.88329102 54.44140625 87.55273438 C51.52446323 83.03492886 51.52446323 83.03492886 48 79 C43.05 79 38.1 79 33 79 Z M2 104 C2 104.99 2 105.98 2 107 C6.62 107 11.24 107 16 107 C16 106.01 16 105.02 16 104 C11.38 104 6.76 104 2 104 Z " fill="#ffffff" transform="translate(29,0)"/>
<path d="M0 0 C1.875 1.0625 1.875 1.0625 3 3 C3.63316583 8.90954774 3.63316583 8.90954774 1.875 11.9375 C-0.93512264 13.52990283 -2.82764724 13.45319325 -6 13 C-8.4375 11.4375 -8.4375 11.4375 -10 9 C-9.9375 5.375 -9.9375 5.375 -9 2 C-5.53076119 -0.31282587 -4.07794425 -0.42478586 0 0 Z M-5 5 C-5 5.99 -5 6.98 -5 8 C-3.68 7.67 -2.36 7.34 -1 7 C-1.33 6.34 -1.66 5.68 -2 5 C-2.99 5 -3.98 5 -5 5 Z " fill="#ffffff" transform="translate(75,83)"/>
</svg>
