<?xml version="1.0" encoding="UTF-8"?>
<svg version="1.1" xmlns="http://www.w3.org/2000/svg" width="121" height="120">
<path d="M0 0 C1.25586914 -0.00386719 1.25586914 -0.00386719 2.53710938 -0.0078125 C3.41302734 -0.00007813 4.28894531 0.00765625 5.19140625 0.015625 C6.06345703 0.00789063 6.93550781 0.00015625 7.83398438 -0.0078125 C8.67251953 -0.00523438 9.51105469 -0.00265625 10.375 0 C11.14255615 0.00225586 11.9101123 0.00451172 12.70092773 0.00683594 C14.75390625 0.265625 14.75390625 0.265625 17.75390625 2.265625 C18.08390625 3.255625 18.41390625 4.245625 18.75390625 5.265625 C19.72328125 4.935625 20.69265625 4.605625 21.69140625 4.265625 C28.96077741 2.28175279 34.17797632 2.90099249 41.19140625 5.703125 C49.06593246 8.74361451 56.45752646 8.90380216 64.81298828 9.17529297 C72.13691086 9.51615477 76.34979317 11.53320959 81.75390625 16.265625 C82.87667969 15.688125 83.99945313 15.110625 85.15625 14.515625 C86.66750494 13.76469087 88.17925036 13.01474323 89.69140625 12.265625 C90.79452148 11.69328125 90.79452148 11.69328125 91.91992188 11.109375 C97.27380028 8.49088425 101.79754301 7.49778624 107.75390625 8.265625 C110.75390625 9.390625 110.75390625 9.390625 112.75390625 11.265625 C113.152507 13.25364626 113.49235859 15.25497736 113.75390625 17.265625 C104.87859616 24.0467608 95.51502665 29.95391598 86.03515625 35.84228516 C83.95362113 37.14101693 81.88312936 38.45521742 79.81640625 39.77734375 C78.67069803 40.50280179 77.5248739 41.22807684 76.37890625 41.953125 C75.40179688 42.57574219 74.4246875 43.19835937 73.41796875 43.83984375 C64.45738112 48.63546616 53.46210916 46.55390571 44.203125 43.77734375 C43.14738281 43.44347656 42.09164062 43.10960937 41.00390625 42.765625 C29.04533381 38.85233162 29.04533381 38.85233162 16.75390625 40.265625 C16.42390625 41.915625 16.09390625 43.565625 15.75390625 45.265625 C12.64975923 45.29466077 9.54564716 45.3124357 6.44140625 45.328125 C5.56033203 45.33650391 4.67925781 45.34488281 3.77148438 45.35351562 C2.92392578 45.35673828 2.07636719 45.35996094 1.203125 45.36328125 C0.42283936 45.36851807 -0.35744629 45.37375488 -1.16137695 45.37915039 C-3.24609375 45.265625 -3.24609375 45.265625 -6.24609375 44.265625 C-6.29543774 38.32081319 -6.33178657 32.37611991 -6.35595703 26.43115234 C-6.36603046 24.40769373 -6.3796897 22.38424972 -6.39697266 20.36083984 C-6.42116222 17.45666911 -6.43256324 14.55269039 -6.44140625 11.6484375 C-6.45172882 10.74006134 -6.46205139 9.83168518 -6.47268677 8.89578247 C-6.47283783 8.05506195 -6.47298889 7.21434143 -6.47314453 6.34814453 C-6.47758575 5.60646027 -6.48202698 4.864776 -6.48660278 4.10061646 C-5.96118322 0.09186718 -3.42662897 0.01008574 0 0 Z M-0.24609375 6.265625 C-0.9040863 17.28700025 -1.36485149 28.22115487 -1.24609375 39.265625 C2.71390625 39.265625 6.67390625 39.265625 10.75390625 39.265625 C11.71856116 32.04210671 11.87346739 24.98500432 11.81640625 17.703125 C11.81189453 16.59904297 11.80738281 15.49496094 11.80273438 14.35742188 C11.7910578 11.66013242 11.77312653 8.96287125 11.75390625 6.265625 C7.79390625 6.265625 3.83390625 6.265625 -0.24609375 6.265625 Z M17.75390625 12.265625 C16.55360717 14.66622317 16.63930882 16.15923149 16.65625 18.8359375 C16.65947266 19.73183594 16.66269531 20.62773438 16.66601562 21.55078125 C16.67439453 22.48792969 16.68277344 23.42507812 16.69140625 24.390625 C16.69591797 25.33550781 16.70042969 26.28039062 16.70507812 27.25390625 C16.71688268 29.59120887 16.73334866 31.92838561 16.75390625 34.265625 C17.74390625 33.935625 18.73390625 33.605625 19.75390625 33.265625 C27.516829 32.71390577 33.92233315 34.45007112 41.31640625 36.703125 C56.51965377 41.45968049 56.51965377 41.45968049 71.75390625 38.265625 C75.12944901 36.44509993 78.27910426 34.36927043 81.44140625 32.203125 C82.29702148 31.63182861 83.15263672 31.06053223 84.03417969 30.47192383 C85.77361103 29.30890181 87.50950332 28.14056815 89.24169922 26.96679688 C91.61364588 25.36060403 93.99535431 23.7705167 96.3828125 22.1875 C99.84683967 19.89051295 103.30283373 17.58202671 106.75390625 15.265625 C106.25890625 14.275625 106.25890625 14.275625 105.75390625 13.265625 C100.18918051 13.82565331 95.82711235 15.9001493 90.87890625 18.328125 C90.09515625 18.70517578 89.31140625 19.08222656 88.50390625 19.47070312 C86.58395572 20.39555734 84.66846725 21.32966478 82.75390625 22.265625 C82.75390625 23.915625 82.75390625 25.565625 82.75390625 27.265625 C67.90390625 26.770625 67.90390625 26.770625 52.75390625 26.265625 C52.75390625 24.945625 52.75390625 23.625625 52.75390625 22.265625 C60.67390625 22.265625 68.59390625 22.265625 76.75390625 22.265625 C75.34836489 17.43314396 75.34836489 17.43314396 72.90966797 15.96801758 C70.56915109 15.20542788 68.72039414 15.02605702 66.26171875 15.02734375 C65.39853027 15.01437256 64.5353418 15.00140137 63.64599609 14.98803711 C62.73285645 14.97651611 61.8197168 14.96499512 60.87890625 14.953125 C52.62765846 14.73323314 46.48117818 13.4843039 38.8359375 10.35546875 C31.48225585 7.75511744 24.48098777 8.46336153 17.75390625 12.265625 Z " fill="#ffffff" transform="translate(7.24609375,73.734375)"/>
<path d="M0 0 C2.3570226 0.94280904 4.69034152 1.94647157 7 3 C8.66355678 3.25074681 10.33068196 3.47852052 12 3.6875 C17.20771614 4.61716793 19.20241343 6.86640314 22.3359375 10.97265625 C24.01761635 13.02146217 25.61118598 14.29604568 27.8125 15.75 C31.55189918 18.38957589 32.55117281 20.05508217 33.5625 24.4375 C33.85416667 26.14583333 34.14583333 27.85416667 34.4375 29.5625 C34.99515771 31.97901674 35.88850103 33.79968571 37 36 C37.52514475 41.56653437 36.25588379 44.96764386 34 50 C33.65848371 51.53549959 33.34682018 53.07788837 33.0625 54.625 C32.01923899 59.6947312 29.79523204 62.46877267 25.875 65.8125 C24 67 24 67 22 67 C21.62875 68.1446875 21.62875 68.1446875 21.25 69.3125 C19.81415817 72.39955994 18.87464659 73.23579382 16 75 C12.8359375 75.9140625 12.8359375 75.9140625 9.375 76.625 C5.06025891 77.4458748 5.06025891 77.4458748 1 79 C-0.78859511 79.12207871 -2.58228381 79.17548448 -4.375 79.1875 C-5.33148438 79.20167969 -6.28796875 79.21585937 -7.2734375 79.23046875 C-10.10076296 78.99148279 -11.52497964 78.29342911 -14 77 C-15.80538328 76.68520142 -17.61930165 76.41698135 -19.4375 76.1875 C-24.4209402 75.34363746 -26.9082663 74.1888005 -30 70 C-30.33 69.278125 -30.66 68.55625 -31 67.8125 C-31.88466342 65.75406872 -31.88466342 65.75406872 -34.375 65.0625 C-37.96910811 63.60774196 -38.98853767 62.35243722 -41 59 C-41.89788673 55.99873047 -42.6252598 52.99880185 -43.2890625 49.9375 C-43.91630444 47.00381057 -43.91630444 47.00381057 -45.1015625 44.37890625 C-46.04517837 41.88037554 -46.14392694 40.54467435 -45.75 37.9375 C-45.66234375 37.28652344 -45.5746875 36.63554688 -45.484375 35.96484375 C-45 34 -45 34 -44.0078125 32.0625 C-42.85740062 29.70816872 -42.51538479 27.64780337 -42.125 25.0625 C-41.30134264 20.72074029 -40.29580419 18.10747252 -37 15 C-35.824375 14.319375 -35.824375 14.319375 -34.625 13.625 C-31.9918419 11.99494975 -31.21944672 10.96076506 -29.5 8.5 C-25.90903309 4.03479246 -21.46412763 3.55029722 -16.0234375 2.60546875 C-1.9179048 -0.21928263 -1.9179048 -0.21928263 0 0 Z M-13 8 C-14.62464741 8.2110653 -16.24969258 8.4190787 -17.875 8.625 C-23.13668437 9.60083167 -25.2415819 11.81910586 -28.40234375 15.99609375 C-29.93236803 17.91517066 -31.29585941 19.0192344 -33.3125 20.375 C-36.6758519 23.66013441 -36.98922005 26.04766446 -37.578125 30.59765625 C-38.01311997 33.07471096 -38.84849745 34.78486055 -40 37 C-40.54126942 41.97967862 -39.23179965 44.62223915 -37 49 C-36.74922849 50.49653968 -36.52145273 51.99705086 -36.3125 53.5 C-35.54353486 57.39044227 -34.40725365 58.89026004 -31.1875 61.1875 C-30.465625 61.65027344 -29.74375 62.11304688 -29 62.58984375 C-27 64 -27 64 -24.6875 67.25 C-21.19807127 70.82057824 -18.46120963 71.014228 -13.62109375 71.578125 C-11.01306503 71.99789713 -9.33364195 72.83074308 -7 74 C-3.4482162 73.7369049 -0.3775759 73.12585863 3 72 C6 71 6 71 9.625 70.625 C13.5666069 69.8950728 14.48210159 69.02147809 17 66 C21.69546742 61.18413598 21.69546742 61.18413598 24.6875 59.375 C27.88568797 56.09037452 27.99303043 53.01248981 28.54296875 48.55859375 C29 46 29 46 31 43 C31.25482174 40.00584458 31.42452711 37.8300713 30.0390625 35.12109375 C28.86292147 32.72017429 28.51904246 30.637672 28.125 28 C27.32624127 23.77710502 26.55362723 21.63983737 23 19 C18.18623685 15.26933356 18.18623685 15.26933356 16.2578125 12.48046875 C13.41802484 9.36063283 11.4783293 9.00953274 7.375 8.25 C1.05860806 7.02930403 1.05860806 7.02930403 -1 6 C-5.68396426 5.73486995 -8.72952921 6.21236107 -13 8 Z " fill="#ffffff" transform="translate(78,0)"/>
<path d="M0 0 C1.67542976 0.28604898 3.34385343 0.61781233 5 1 C4.36572746 4.11668403 3.30341406 6.45003139 1.6640625 9.16796875 C0.94077759 10.37247681 0.94077759 10.37247681 0.20288086 11.60131836 C-0.31781982 12.4547583 -0.83852051 13.30819824 -1.375 14.1875 C-1.90794678 15.06865479 -2.44089355 15.94980957 -2.98999023 16.85766602 C-7.80935698 24.7818513 -12.82368326 32.57308108 -17.92285156 40.31933594 C-18.8868683 41.82348173 -19.78605301 43.36872167 -20.67578125 44.91796875 C-22 47 -22 47 -24.125 47.875 C-24.74375 47.91625 -25.3625 47.9575 -26 48 C-27 47 -27 47 -27.22753906 44.72705078 C-26.96093695 41.53183022 -26.11419554 40.031566 -24.359375 37.3671875 C-23.78856201 36.48699951 -23.21774902 35.60681152 -22.62963867 34.69995117 C-21.69921753 33.30160034 -21.69921753 33.30160034 -20.75 31.875 C-19.46954092 29.91048933 -18.18960323 27.94563873 -16.91015625 25.98046875 C-16.25934082 24.98837402 -15.60852539 23.9962793 -14.93798828 22.97412109 C-11.96599205 18.41316644 -9.07767588 13.80056261 -6.1875 9.1875 C-5.20323632 7.61760255 -4.21768976 6.04850819 -3.23046875 4.48046875 C-2.82207764 3.82973389 -2.41368652 3.17899902 -1.99291992 2.50854492 C-1 1 -1 1 0 0 Z " fill="#ffffff" transform="translate(85,16)"/>
<path d="M0 0 C3.40850414 2.12084702 5.81386655 4.1181087 7 8 C7.46846274 12.84078166 7.50094246 15.03389668 5.25 19.375 C1.93193717 23.2460733 1.93193717 23.2460733 -1 24 C-5.18091443 23.92398337 -7.42803804 23.39788658 -10.875 21 C-13.67706285 17.04414656 -14.29685563 13.80906125 -14 9 C-11.4137262 1.64953763 -7.81131416 -0.95928419 0 0 Z M-8 9 C-8.33142708 12.18170002 -8.50608328 14.17428518 -6.8125 16.9375 C-4.95879731 18.26849034 -4.95879731 18.26849034 -2.3125 17.6875 C-1.549375 17.460625 -0.78625 17.23375 0 17 C1.9271963 12.64530377 1.9271963 12.64530377 0.9375 8.125 C-0.82276686 5.77023969 -0.82276686 5.77023969 -3.5625 5.5 C-6.35862883 5.7756937 -6.35862883 5.7756937 -8 9 Z " fill="#ffffff" transform="translate(89,39)"/>
<path d="M0 0 C3.47681295 2.01329926 5.70512046 4.11536139 7 8 C7.27549084 13.78530763 7.40090514 17.31098625 3.4375 21.75 C-0.32152556 23.67770542 -3.87117105 23.80221454 -8 23 C-11.28175318 20.47031526 -12.69243777 18.92268669 -14 15 C-14.53832527 9.29375217 -13.61757835 6.4444534 -10 2 C-6.23124125 -0.51250583 -4.46849866 -0.53016086 0 0 Z M-4 5 C-6.13875077 6.01760473 -6.13875077 6.01760473 -8 8 C-8.44468014 11.55744112 -8.6843952 13.90496767 -6.75 17 C-5.03485848 18.20166449 -5.03485848 18.20166449 -2.9375 17.8125 C-0.81287474 17.06529664 -0.81287474 17.06529664 1 15 C1.58342353 11.54230809 1.58342353 11.54230809 1 8 C-1.3726974 5.99135641 -1.3726974 5.99135641 -4 5 Z " fill="#ffffff" transform="translate(65,17)"/>
</svg>
