<?xml version="1.0" encoding="UTF-8"?>
<svg version="1.1" xmlns="http://www.w3.org/2000/svg" width="121" height="120">
<path d="M0 0 C3.25977105 2.14606808 6.23632391 4.47264783 8 8 C8.12472772 10.45104466 8.18516331 12.86131348 8.1875 15.3125 C8.20167969 16.62863281 8.21585937 17.94476562 8.23046875 19.30078125 C8.01736646 22.72125367 7.49124982 24.95266341 6 28 C7.1446875 28.0928125 7.1446875 28.0928125 8.3125 28.1875 C11 29 11 29 12.640625 31.1171875 C15.15837378 36.45655129 14.63494478 42.23145915 14 48 C12.83879008 50.96056224 11.24972288 52.75027712 9 55 C8.76807135 56.51469448 8.58784762 58.03754562 8.4375 59.5625 C8.31181641 60.80193359 8.31181641 60.80193359 8.18359375 62.06640625 C8.12300781 62.70449219 8.06242187 63.34257813 8 64 C9.98 63.67 11.96 63.34 14 63 C14.33 64.65 14.66 66.3 15 68 C10.38 68.99 5.76 69.98 1 71 C0.67 72.98 0.34 74.96 0 77 C6.93 77 13.86 77 21 77 C21 78.32 21 79.64 21 81 C19.02 81 17.04 81 15 81 C15 82.65 15 84.3 15 86 C19.95 86 24.9 86 30 86 C29.34 85.01 28.68 84.02 28 83 C27.90601771 81.18945873 27.87008013 79.37547219 27.875 77.5625 C27.77950965 74.63786362 27.77950965 74.63786362 27 72 C24.57188887 69.87604717 22.08254576 68.87771804 19 68 C19.495 66.515 19.495 66.515 20 65 C21.98567708 65.26041667 23.97135417 65.52083333 25.95703125 65.78125 C29.55619366 66.16662877 30.63941557 66.27473099 33.625 64 C37.50307579 61.70188102 39.34776211 61.76884396 43.6875 61.99609375 C46.11387009 62.00019235 48.04591179 61.59255606 50.375 60.9375 C54 60 54 60 57 61 C58.6877634 64.3755268 58.18459799 68.16623711 58.1875 71.875 C58.19974609 72.69097656 58.21199219 73.50695312 58.22460938 74.34765625 C58.22654297 75.13785156 58.22847656 75.92804688 58.23046875 76.7421875 C58.23457764 77.4626123 58.23868652 78.18303711 58.24291992 78.92529297 C57.96436122 81.30438021 57.17652882 82.93021855 56 85 C57.134375 85.144375 58.26875 85.28875 59.4375 85.4375 C63 86 63 86 64 87 C64.0983721 88.33043625 64.13078592 89.66593344 64.1328125 91 C64.13410156 91.804375 64.13539062 92.60875 64.13671875 93.4375 C64.13285156 94.283125 64.12898438 95.12875 64.125 96 C64.12886719 96.845625 64.13273437 97.69125 64.13671875 98.5625 C64.13542969 99.366875 64.13414063 100.17125 64.1328125 101 C64.13168457 101.7425 64.13055664 102.485 64.12939453 103.25 C64 105 64 105 63 106 C61.00041636 106.04080783 58.99954746 106.04254356 57 106 C56.896875 107.093125 56.79375 108.18625 56.6875 109.3125 C55.81910728 113.97024276 55.81910728 113.97024276 53 116 C49.63628012 117.68185994 45.8316511 117.15639645 42.1315918 117.16113281 C41.212742 117.16609772 40.29389221 117.17106262 39.34719849 117.17617798 C36.29786437 117.1908206 33.24858229 117.19760535 30.19921875 117.203125 C28.08413186 117.20887504 25.96904498 117.21463279 23.85395813 117.22039795 C19.41443641 117.23091413 14.97493282 117.23675265 10.53540039 117.24023438 C4.84563485 117.24571819 -0.84389127 117.26974133 -6.53358173 117.29820633 C-10.90446168 117.31682756 -15.27528392 117.32203805 -19.64620018 117.32357025 C-21.74376928 117.32659883 -23.84133732 117.33463424 -25.93886757 117.34775543 C-28.87389974 117.36480381 -31.80834665 117.36293846 -34.7434082 117.35644531 C-35.61060989 117.3656601 -36.47781158 117.37487488 -37.37129211 117.3843689 C-42.06338523 117.35184047 -45.19886751 117.07070205 -49 114 C-50.35439668 111.29120665 -50.06501451 108.99066732 -50 106 C-50.969375 106.020625 -51.93875 106.04125 -52.9375 106.0625 C-56 106 -56 106 -57 105 C-57.0983721 103.66956375 -57.13078592 102.33406656 -57.1328125 101 C-57.13410156 100.195625 -57.13539062 99.39125 -57.13671875 98.5625 C-57.13285156 97.716875 -57.12898438 96.87125 -57.125 96 C-57.12886719 95.154375 -57.13273437 94.30875 -57.13671875 93.4375 C-57.13542969 92.633125 -57.13414063 91.82875 -57.1328125 91 C-57.13168457 90.2575 -57.13055664 89.515 -57.12939453 88.75 C-57 87 -57 87 -56 86 C-53.66702567 85.95907063 -51.33294775 85.95758277 -49 86 C-49.309375 85.030625 -49.61875 84.06125 -49.9375 83.0625 C-51.13643287 78.83604601 -52.1077779 74.40991252 -52 70 C-51.01 69.01 -51.01 69.01 -50 68 C-47.1875 68 -47.1875 68 -44 69 C-43.360625 69.99 -42.72125 70.98 -42.0625 72 C-40.02335008 74.86028411 -38.9288051 75.01204368 -35.3515625 75.6171875 C-31.56885286 75.91200246 -27.79323486 75.99045727 -24 76 C-24 73.03 -24 70.06 -24 67 C-29.09676533 65.60997309 -33.838309 64.72650248 -39.1171875 64.44140625 C-41 64 -41 64 -43 61 C-43.6328125 58.29296875 -43.6328125 58.29296875 -44.125 55.1875 C-44.37636719 53.66189453 -44.37636719 53.66189453 -44.6328125 52.10546875 C-44.99688553 49.02634046 -45.13563917 46.09709444 -45 43 C-44.505 42.505 -44.505 42.505 -44 42 C-41.66055264 42.28730055 -39.3260857 42.61936779 -37 43 C-37 43.66 -37 44.32 -37 45 C-36.34 45 -35.68 45 -35 45 C-34.67 45.66 -34.34 46.32 -34 47 C-33.66266846 46.45996338 -33.32533691 45.91992676 -32.9777832 45.36352539 C-31.43854285 42.91943819 -29.87599257 40.49113735 -28.3125 38.0625 C-27.78205078 37.21236328 -27.25160156 36.36222656 -26.70507812 35.48632812 C-26.17978516 34.67744141 -25.65449219 33.86855469 -25.11328125 33.03515625 C-24.63673096 32.2862915 -24.16018066 31.53742676 -23.66918945 30.76586914 C-21.56253819 28.53720034 -19.99575927 28.32200526 -17 28 C-17.495 27.030625 -17.99 26.06125 -18.5 25.0625 C-20.8627346 19.49319701 -20.9518293 13.83724881 -18.75 8.1875 C-16.58122386 4.23722918 -14.63414955 1.9532539 -10.75 -0.3125 C-6.95355367 -1.26161158 -3.68974615 -1.22061546 0 0 Z M-13 7 C-13.66522172 9.05532431 -13.66522172 9.05532431 -14 11 C-13.35933594 10.98839844 -12.71867187 10.97679687 -12.05859375 10.96484375 C-6.91346778 10.91116881 -2.06975076 11.11830422 3 12 C2.67278832 8.94602429 1.96883223 7.96883223 -0.25 5.75 C-5.14879861 2.63258271 -8.50425639 3.50331052 -13 7 Z M-15 17 C-14.80589563 21.17324402 -14.2043469 22.77132608 -11.375 25.9375 C-8.14352045 28.30372537 -8.14352045 28.30372537 -4.375 28.0625 C-0.69432528 26.90376907 0.79302599 26.14069378 3 23 C3.38097756 21.00852637 3.71979545 19.0081326 4 17 C1.85447441 16.49868109 -0.29142898 15.99897884 -2.4375 15.5 C-3.63246094 15.2215625 -4.82742187 14.943125 -6.05859375 14.65625 C-10.3464906 13.69958775 -11.23414452 14.68255048 -15 17 Z M-18 32 C-22.79520788 37.1317137 -26.06888409 43.66878963 -29 50 C-27.68 50 -26.36 50 -25 50 C-23.61876037 48.03277992 -22.28511874 46.03131672 -21 44 C-20.01 43.67 -19.02 43.34 -18 43 C-18.55728913 46.34373475 -19.35173889 49.03312999 -21 52 C-17.51104001 53.18730768 -16.069762 53.02618052 -12.5546875 51.70703125 C-11.32074715 51.09006108 -10.09423132 50.4580509 -8.875 49.8125 C-8.25496094 49.50763672 -7.63492188 49.20277344 -6.99609375 48.88867188 C-3.40901123 47.04884568 -1.24954533 45.31550635 1 42 C1.66 42 2.32 42 3 42 C2.49287967 45.71888239 1.88391785 48.73454239 0 52 C1.78141747 52.86358623 1.78141747 52.86358623 4 53 C6.23343204 51.14944202 7.70191542 49.59616917 9 47 C9.14800918 44.83678892 9.22122021 42.66807763 9.25 40.5 C9.28867188 38.75203125 9.28867188 38.75203125 9.328125 36.96875 C9.21984375 35.9890625 9.1115625 35.009375 9 34 C6.31450092 31.79103278 6.31450092 31.79103278 3.9375 32.0625 C1.18738263 33.39320195 1.08402573 35.22218406 0 38 C-2.50077914 39.9648979 -3.8623513 40.00280916 -7.0625 39.9375 C-10 39 -10 39 -11.8125 36.5625 C-12.204375 35.716875 -12.59625 34.87125 -13 34 C-13.33 33.34 -13.66 32.68 -14 32 C-15.32 32 -16.64 32 -18 32 Z M-9 32 C-8.34 33.32 -7.68 34.64 -7 36 C-5.68 35.67 -4.36 35.34 -3 35 C-3 34.01 -3 33.02 -3 32 C-4.98 32 -6.96 32 -9 32 Z M-40 48 C-39.34 51.96 -38.68 55.92 -38 60 C-36.02 60 -34.04 60 -32 60 C-31.67 58.35 -31.34 56.7 -31 55 C-31.7425 54.773125 -32.485 54.54625 -33.25 54.3125 C-36.51139591 52.75592468 -37.92894975 50.91481146 -40 48 Z M-10.6875 55 C-12.3271875 55.99 -12.3271875 55.99 -14 57 C-13.67 57.66 -13.34 58.32 -13 59 C-8.05 57.515 -8.05 57.515 -3 56 C-3.33 55.01 -3.66 54.02 -4 53 C-7.1743622 53 -8.06292462 53.41535071 -10.6875 55 Z M-26 55 C-26.66 56.98 -27.32 58.96 -28 61 C-27.45730469 61.25394531 -26.91460937 61.50789063 -26.35546875 61.76953125 C-25.64003906 62.11371094 -24.92460938 62.45789063 -24.1875 62.8125 C-23.12595703 63.31716797 -23.12595703 63.31716797 -22.04296875 63.83203125 C-19.98743373 65.00718416 -18.6610375 66.3389625 -17 68 C-16.34 68 -15.68 68 -15 68 C-13.5783681 71.3171411 -12.60990891 74.44219804 -12 78 C-14.86973884 79.61635488 -17.04464203 80.2733418 -20.328125 80.4140625 C-21.52695312 80.47207031 -21.52695312 80.47207031 -22.75 80.53125 C-23.9875 80.57765625 -23.9875 80.57765625 -25.25 80.625 C-26.09046875 80.66367188 -26.9309375 80.70234375 -27.796875 80.7421875 C-29.86423382 80.83615836 -31.93208627 80.91915564 -34 81 C-34 82.65 -34 84.3 -34 86 C-26.08 86 -18.16 86 -10 86 C-9.67 84.02 -9.34 82.04 -9 80 C-8.319375 79.525625 -7.63875 79.05125 -6.9375 78.5625 C-4.63354935 77.05745193 -4.63354935 77.05745193 -4.4375 73.6875 C-5.10562236 69.30758675 -6.6098013 66.74926561 -10 64 C-11.80445692 63.07645833 -11.80445692 63.07645833 -13.6875 62.375 C-17 61 -17 61 -18 58.9375 C-18.94956846 56.55056452 -18.94956846 56.55056452 -22.625 55.75 C-24.295625 55.37875 -24.295625 55.37875 -26 55 Z M-2.0625 60 C-3.16271484 60.556875 -3.16271484 60.556875 -4.28515625 61.125 C-5.13400391 61.558125 -5.13400391 61.558125 -6 62 C-5.67 62.66 -5.34 63.32 -5 64 C-4.34 64 -3.68 64 -3 64 C-3 64.66 -3 65.32 -3 66 C-1.02 65.67 0.96 65.34 3 65 C3 62.69 3 60.38 3 58 C1.15568588 58 -0.45015399 59.1810306 -2.0625 60 Z M48.85546875 66.58984375 C46.70370989 68.90715286 46.70370989 68.90715286 46.86328125 72.12890625 C47.01152344 73.26199219 47.15976563 74.39507812 47.3125 75.5625 C48.0794702 81.7615894 48.0794702 81.7615894 47 85 C49.46800047 83.84826645 51.04783565 82.95216435 53 81 C53.14507695 78.25514407 53.18652423 75.61519457 53.125 72.875 C53.11146484 71.74384766 53.11146484 71.74384766 53.09765625 70.58984375 C53.0740687 68.72642746 53.03819719 66.86317407 53 65 C50.82284586 64.80148585 50.82284586 64.80148585 48.85546875 66.58984375 Z M35.25 69.4375 C34.5075 70.283125 33.765 71.12875 33 72 C32.67 72.33 32.34 72.66 32 73 C31.98726301 75.03985647 31.98726301 75.03985647 32.25 77.375 C32.31703125 78.16648437 32.3840625 78.95796875 32.453125 79.7734375 C33.09566935 82.38951093 33.86447597 83.38926411 36 85 C39.30926793 85 40.78643291 84.1588063 43.4375 82.1875 C45.9347776 77.09305369 44.26512953 72.35970416 43 67 C38.7118887 66.71220084 38.7118887 66.71220084 35.25 69.4375 Z M-19 72 C-19 73.32 -19 74.64 -19 76 C-18.34 76 -17.68 76 -17 76 C-17.66 74.68 -18.32 73.36 -19 72 Z M-46 75 C-45.67 78.63 -45.34 82.26 -45 86 C-42.69 86 -40.38 86 -38 86 C-38 84.35 -38 82.7 -38 81 C-38.78375 80.938125 -39.5675 80.87625 -40.375 80.8125 C-41.24125 80.544375 -42.1075 80.27625 -43 80 C-44.3125 77.4375 -44.3125 77.4375 -45 75 C-45.33 75 -45.66 75 -46 75 Z M-4 81 C-4.66 82.32 -5.32 83.64 -6 85 C-4.81147145 86.41774838 -4.81147145 86.41774838 -1.40234375 86.09765625 C0.08596867 86.0909822 1.57426432 86.07902183 3.0625 86.0625 C4.20041992 86.05573242 4.20041992 86.05573242 5.36132812 86.04882812 C7.24091871 86.0370068 9.12046899 86.01907078 11 86 C11 84.35 11 82.7 11 81 C6.05 81 1.1 81 -4 81 Z M-53 91 C-53 94.63 -53 98.26 -53 102 C-34.85 102 -16.7 102 2 102 C2 103.32 2 104.64 2 106 C-13.51 106 -29.02 106 -45 106 C-45 107.65 -45 109.3 -45 111 C-43.12634733 112.87365267 -40.42565372 112.12662268 -37.93243408 112.13552856 C-37.06020203 112.13350433 -36.18796997 112.1314801 -35.28930664 112.12939453 C-34.37553757 112.13114685 -33.46176849 112.13289917 -32.52030945 112.13470459 C-29.4835727 112.13912506 -26.44689365 112.13618419 -23.41015625 112.1328125 C-21.30887338 112.13348554 -19.20759059 112.13445557 -17.10630798 112.13571167 C-12.69529481 112.13718896 -8.28430185 112.13503332 -3.87329102 112.13037109 C1.79092743 112.12467729 7.45509845 112.12795042 13.11931515 112.13394356 C17.46090555 112.13755132 21.80248466 112.13640952 26.14407539 112.13381577 C28.23294645 112.13314691 30.32181852 112.13397347 32.4106884 112.13629532 C35.32712407 112.13882497 38.24348223 112.13497661 41.15991211 112.12939453 C42.46522385 112.13243088 42.46522385 112.13243088 43.79690552 112.13552856 C48.03287371 112.24089042 48.03287371 112.24089042 52 111 C52 109.35 52 107.7 52 106 C36.49 106 20.98 106 5 106 C5.33 105.01 5.66 104.02 6 103 C23.49 102.67 40.98 102.34 59 102 C59 98.37 59 94.74 59 91 C22.04 91 -14.92 91 -53 91 Z " fill="#ffffff" transform="translate(57,2)"/>
</svg>
