<?xml version="1.0" encoding="UTF-8"?>
<svg version="1.1" xmlns="http://www.w3.org/2000/svg" width="121" height="120">
<path d="M0 0 C1.75190392 -0.01868637 1.75190392 -0.01868637 3.53919983 -0.03775024 C5.41749733 -0.010121 5.41749733 -0.010121 7.33374023 0.01806641 C9.27324806 0.01657089 9.27324806 0.01657089 11.25193787 0.01504517 C13.98337736 0.01522419 16.71363095 0.0359916 19.44482422 0.07226562 C22.94119891 0.11768896 26.4358463 0.11871753 29.93243504 0.10523033 C33.27473311 0.09693219 36.61650163 0.12089709 39.95874023 0.14306641 C41.2129628 0.14124359 42.46718536 0.13942078 43.75941467 0.13754272 C45.50659035 0.16613876 45.50659035 0.16613876 47.2890625 0.1953125 C48.82531029 0.20913467 48.82531029 0.20913467 50.39259338 0.22323608 C53.78865918 0.88215897 54.95997142 2.06058681 57.07983398 4.74462891 C58.00898036 7.53206802 58.2091864 9.2163482 58.22027588 12.09591675 C58.22598602 12.98471527 58.23169617 13.87351379 58.23757935 14.78924561 C58.23925613 16.24805145 58.23925613 16.24805145 58.2409668 17.73632812 C58.24841415 19.27575577 58.24841415 19.27575577 58.25601196 20.84628296 C58.27063815 24.24730088 58.27743604 27.64827218 58.28295898 31.04931641 C58.28870964 33.40959678 58.29446738 35.76987713 58.30023193 38.13015747 C58.31074294 43.08156553 58.3165851 48.03295735 58.32006836 52.984375 C58.32555616 59.3321295 58.34959006 65.67966982 58.37804031 72.0273571 C58.39665317 76.90349965 58.40187156 81.77959045 58.40340424 86.65576553 C58.40643386 88.99615781 58.41447277 91.33654911 58.42758942 93.67690659 C58.44462281 96.94948437 58.44277618 100.22153664 58.4362793 103.49414062 C58.44549408 104.46262939 58.45470886 105.43111816 58.46420288 106.42895508 C58.43370953 111.32636384 58.36821477 114.82606453 55.07983398 118.74462891 C51.69621555 121.00037453 50.46636602 121.01311675 46.49438477 121.06689453 C45.3495462 121.08610962 44.20470764 121.10532471 43.025177 121.12512207 C41.78766693 121.13362183 40.55015686 121.14212158 39.27514648 121.15087891 C37.36824539 121.16797913 37.36824539 121.16797913 35.42282104 121.1854248 C32.73103515 121.20433235 30.03969558 121.21812172 27.34790039 121.22509766 C23.90518614 121.23606495 20.4640551 121.28411645 17.02183723 121.34104156 C13.73139404 121.38733689 10.44086977 121.39119594 7.15014648 121.40087891 C5.91668488 121.42557251 4.68322327 121.45026611 3.41238403 121.47570801 C2.26124115 121.46970581 1.11009827 121.46370361 -0.07592773 121.45751953 C-1.08613983 121.46481079 -2.09635193 121.47210205 -3.13717651 121.47961426 C-6.33819903 120.63422671 -7.99807344 119.36666469 -9.96945 116.7000351 C-11.89405421 112.74156283 -11.6117996 108.56407416 -11.56713867 104.24462891 C-11.57590027 103.20000488 -11.58466187 102.15538086 -11.59368896 101.07910156 C-11.61565477 97.63385201 -11.60113906 94.189891 -11.58422852 90.74462891 C-11.58759743 88.34618891 -11.59245067 85.94775057 -11.59872437 83.54931641 C-11.60609193 78.52571336 -11.59539319 73.5025552 -11.57202148 68.47900391 C-11.54353466 62.04260851 -11.55993912 55.60725559 -11.5898838 49.17089844 C-11.60795938 44.21915851 -11.60219735 39.26766537 -11.58924484 34.31591797 C-11.5859116 31.94286984 -11.58999499 29.56979923 -11.60164261 27.19677734 C-11.61435474 23.87879162 -11.59496663 20.56248937 -11.56713867 17.24462891 C-11.57725983 16.26574707 -11.58738098 15.28686523 -11.59780884 14.27832031 C-11.53075482 9.95850915 -11.370773 6.68448116 -8.7497406 3.13491821 C-5.50188301 0.39128342 -4.19087601 -0.00514721 0 0 Z M-5.92016602 7.74462891 C-6.30259634 10.35553718 -6.42717282 12.54448016 -6.37426758 15.15356445 C-6.37485168 15.90502747 -6.37543579 16.65649048 -6.3760376 17.4307251 C-6.37325068 19.91473578 -6.34213179 22.39754662 -6.31079102 24.88134766 C-6.30333074 26.60341232 -6.2976368 28.32548546 -6.29364014 30.04756165 C-6.27836687 34.58024532 -6.23907077 39.11241635 -6.19482422 43.64489746 C-6.15390783 48.2698676 -6.13563691 52.89492057 -6.11547852 57.52001953 C-6.07257793 66.59511457 -6.00430633 75.66982911 -5.92016602 84.74462891 C-5.13174316 83.95459473 -4.34332031 83.16456055 -3.53100586 82.35058594 C1.66294344 77.1663504 6.13529124 73.29568542 13.07983398 70.74462891 C12.41983398 70.41462891 11.75983398 70.08462891 11.07983398 69.74462891 C10.14233398 68.11962891 10.14233398 68.11962891 9.07983398 65.74462891 C8.56936523 64.85388672 8.05889648 63.96314453 7.53295898 63.04541016 C5.17732483 57.52809687 5.6710746 51.51178612 5.74365234 45.61889648 C5.76739645 43.55169083 5.764181 41.48576593 5.75756836 39.41845703 C5.82008574 27.87547582 5.82008574 27.87547582 8.07983398 24.74462891 C12.66223454 21.61084214 18.18583435 22.37623138 23.51733398 22.36962891 C24.55438477 22.34513672 25.59143555 22.32064453 26.65991211 22.29541016 C34.25621759 22.2661373 34.25621759 22.2661373 38.23999023 24.58056641 C42.63298311 29.74769603 41.30388041 37.01835285 41.32983398 43.43212891 C41.35045898 44.68703125 41.37108398 45.94193359 41.39233398 47.23486328 C41.43216531 56.68982351 40.65770683 63.48628646 34.07983398 70.74462891 C35.04083008 71.16421875 35.04083008 71.16421875 36.02124023 71.59228516 C42.22334368 74.46688154 46.55962224 77.64654918 51.07983398 82.74462891 C52.06983398 83.73462891 52.06983398 83.73462891 53.07983398 84.74462891 C53.17243822 74.75696767 53.24355019 64.76940825 53.28708267 54.78140545 C53.30797421 50.14374842 53.33632016 45.50638469 53.3815918 40.86889648 C53.42499411 36.39499332 53.44895929 31.92137258 53.45934296 27.44727516 C53.46674447 25.73877324 53.48119773 24.0302871 53.50275421 22.32190514 C53.53171451 19.93211617 53.53579323 17.54350013 53.53393555 15.15356445 C53.54831665 14.44434341 53.56269775 13.73512238 53.57751465 13.00440979 C53.5513321 9.89976349 53.46071918 8.17613194 51.36846924 5.80583191 C48.72220192 4.57880072 46.92082722 4.3643016 44.00756836 4.35644531 C42.9997229 4.34698883 41.99187744 4.33753235 40.95349121 4.32778931 C39.87112183 4.333862 38.78875244 4.33993469 37.67358398 4.34619141 C36.55673218 4.34332123 35.43988037 4.34045105 34.28918457 4.3374939 C31.92886854 4.33545324 29.5685356 4.34098315 27.20825195 4.35351562 C23.59344705 4.36956845 19.97976032 4.35366613 16.36499023 4.33447266 C14.07201901 4.33645509 11.77904849 4.34029876 9.48608398 4.34619141 C7.86252991 4.33708237 7.86252991 4.33708237 6.20617676 4.32778931 C5.1983313 4.33724579 4.19048584 4.34670227 3.15209961 4.35644531 C2.26703735 4.35883209 1.3819751 4.36121887 0.47009277 4.36367798 C-2.58595418 4.85073985 -3.85961391 5.4102392 -5.92016602 7.74462891 Z M10.07983398 29.74462891 C10.07983398 33.37462891 10.07983398 37.00462891 10.07983398 40.74462891 C18.98983398 40.74462891 27.89983398 40.74462891 37.07983398 40.74462891 C37.07983398 37.11462891 37.07983398 33.48462891 37.07983398 29.74462891 C33.81134363 26.47613855 33.57699424 26.36332463 29.29858398 26.34619141 C28.37432617 26.34232422 27.45006836 26.33845703 26.49780273 26.33447266 C25.0534082 26.351875 25.0534082 26.351875 23.57983398 26.36962891 C22.6169043 26.35802734 21.65397461 26.34642578 20.66186523 26.33447266 C19.73760742 26.33833984 18.81334961 26.34220703 17.86108398 26.34619141 C16.59361328 26.35126709 16.59361328 26.35126709 15.30053711 26.35644531 C12.64896957 26.60070576 12.64896957 26.60070576 10.07983398 29.74462891 Z M10.07983398 44.74462891 C9.20038942 53.90632887 9.20038942 53.90632887 11.82983398 62.43212891 C12.57233398 63.19525391 13.31483398 63.95837891 14.07983398 64.74462891 C14.94608398 65.64181641 14.94608398 65.64181641 15.82983398 66.55712891 C19.13969427 68.30399961 22.38062107 68.85889031 26.07983398 68.74462891 C30.80342536 67.10953958 33.29970141 64.86334382 36.07983398 60.74462891 C37.76499414 56.2161947 37.76499414 56.2161947 37.07983398 44.74462891 C28.16983398 44.74462891 19.25983398 44.74462891 10.07983398 44.74462891 Z M17.07983398 73.74462891 C16.08983398 76.71462891 15.09983398 79.68462891 14.07983398 82.74462891 C15.06983398 83.07462891 16.05983398 83.40462891 17.07983398 83.74462891 C19.09392958 86.7657723 19.34819995 87.55122908 19.49389648 90.97509766 C19.53256836 91.77753906 19.57124023 92.57998047 19.61108398 93.40673828 C19.65749023 94.65680664 19.65749023 94.65680664 19.70483398 95.93212891 C19.74350586 96.77710937 19.78217773 97.62208984 19.82202148 98.49267578 C19.91619678 100.57630414 19.99910074 102.66043643 20.07983398 104.74462891 C18.09983398 104.74462891 16.11983398 104.74462891 14.07983398 104.74462891 C14.32540039 103.96345703 14.32540039 103.96345703 14.57592773 103.16650391 C15.22042058 100.0689414 15.17394987 97.15621796 15.14233398 93.99462891 C15.13331055 92.82416016 15.12428711 91.65369141 15.11499023 90.44775391 C15.10338867 89.55572266 15.09178711 88.66369141 15.07983398 87.74462891 C12.17910217 87.06661857 12.17910217 87.06661857 9.07983398 86.74462891 C6.80898231 88.59287536 6.80898231 88.59287536 6.81420898 91.42431641 C6.81936523 92.47876953 6.82452148 93.53322266 6.82983398 94.61962891 C6.82467773 95.66892578 6.81952148 96.71822266 6.81420898 97.79931641 C7.07225759 100.66062002 7.60238908 102.317398 9.07983398 104.74462891 C7.09983398 104.41462891 5.11983398 104.08462891 3.07983398 103.74462891 C2.94423724 101.18034375 2.84550211 98.62327675 2.76733398 96.05712891 C2.70449219 94.9752832 2.70449219 94.9752832 2.64038086 93.87158203 C2.54445431 89.66999901 2.66006975 88.24071391 5.48608398 84.90087891 C6.76999023 83.83353516 6.76999023 83.83353516 8.07983398 82.74462891 C9.13271212 81.11085248 10.15253408 79.45281293 11.07983398 77.74462891 C6.7836263 77.74462891 5.17663602 79.7998114 2.08374023 82.60791016 C-4.52344255 89.6529959 -6.05610616 96.94690793 -6.23266602 106.36962891 C-6.27004883 107.68189453 -6.30743164 108.99416016 -6.34594727 110.34619141 C-6.27656716 113.7408734 -6.27656716 113.7408734 -4.21057129 115.43276978 C-1.52336186 116.9719036 0.07070186 117.12450278 3.15209961 117.1328125 C4.15994507 117.14226898 5.16779053 117.15172546 6.20617676 117.16146851 C7.82973083 117.15235947 7.82973083 117.15235947 9.48608398 117.14306641 C10.60293579 117.14593658 11.7197876 117.14880676 12.8704834 117.15176392 C15.23079943 117.15380457 17.59113237 117.14827467 19.95141602 117.13574219 C23.56622092 117.11968936 27.17990765 117.13559169 30.79467773 117.15478516 C33.08764895 117.15280273 35.38061948 117.14895906 37.67358398 117.14306641 C38.75595337 117.1491391 39.83832275 117.15521179 40.95349121 117.16146851 C41.96133667 117.15201202 42.96918213 117.14255554 44.00756836 117.1328125 C44.89263062 117.13042572 45.77769287 117.12803894 46.6895752 117.12557983 C49.60787086 116.66047227 50.97983056 115.80558453 53.07983398 113.74462891 C53.5260736 111.08873381 53.69894381 108.95974782 53.64233398 106.30712891 C53.63210205 105.59500244 53.62187012 104.88287598 53.61132812 104.14916992 C53.26280827 95.34139204 50.51661426 87.88550915 44.32983398 81.49462891 C42.4757246 79.52593847 42.4757246 79.52593847 40.07983398 78.74462891 C39.66093181 81.53401102 39.66093181 81.53401102 40.07983398 84.74462891 C41.34827148 85.95119141 41.34827148 85.95119141 42.64233398 87.18212891 C45.07983398 89.74462891 45.07983398 89.74462891 45.07983398 93.43212891 C44.07983398 96.74462891 44.07983398 96.74462891 41.07983398 98.74462891 C34.6270038 98.29179872 34.6270038 98.29179872 32.07983398 95.74462891 C31.70483398 92.43212891 31.70483398 92.43212891 32.07983398 88.74462891 C32.80170898 87.96087891 33.52358398 87.17712891 34.26733398 86.36962891 C36.35734997 83.95893886 36.35734997 83.95893886 35.81811523 81.47119141 C35.08322586 79.00600696 34.45043797 76.92677473 33.07983398 74.74462891 C29.83491997 73.31949775 26.32434458 73.6441451 22.82983398 73.68212891 C21.21334961 73.69566406 21.21334961 73.69566406 19.56420898 73.70947266 C18.33444336 73.726875 18.33444336 73.726875 17.07983398 73.74462891 Z M37.07983398 89.74462891 C36.74983398 91.06462891 36.41983398 92.38462891 36.07983398 93.74462891 C37.39983398 94.07462891 38.71983398 94.40462891 40.07983398 94.74462891 C40.40983398 93.42462891 40.73983398 92.10462891 41.07983398 90.74462891 C39.75983398 90.41462891 38.43983398 90.08462891 37.07983398 89.74462891 Z " fill="#ffffff" transform="translate(11.920166015625,-0.74462890625)"/>
<path d="M0 0 C1.00727394 0.00349709 1.00727394 0.00349709 2.03489685 0.00706482 C3.44779247 0.01676701 4.86065125 0.03847336 6.27319336 0.0715332 C8.43076409 0.12102884 10.58605275 0.13302179 12.74414062 0.13867188 C24.66333655 0.26059253 24.66333655 0.26059253 27.87109375 2.55859375 C28.85908018 5.52255304 29.00850934 7.5420727 29.046875 10.63671875 C29.08264648 12.13138672 29.08264648 12.13138672 29.11914062 13.65625 C29.16178578 15.74198565 29.19321064 17.82798376 29.21289062 19.9140625 C29.39024456 26.32355135 30.09664127 30.32145175 33.87109375 35.55859375 C34.44859375 36.09484375 35.02609375 36.63109375 35.62109375 37.18359375 C37.45221651 39.19782879 36.95626337 40.92685264 36.87109375 43.55859375 C30.69644462 43.68232277 24.52251919 43.77299519 18.34692383 43.83325195 C16.24686105 43.85837426 14.14688552 43.89247833 12.04711914 43.93579102 C9.02598535 43.99654246 6.00600879 44.02482638 2.984375 44.046875 C2.04773514 44.07268143 1.11109528 44.09848785 0.14607239 44.12507629 C-4.24434847 44.12695931 -6.49269664 43.98261622 -10.21948242 41.4987793 C-12.53306681 37.93625574 -12.85431049 35.15072948 -12.79296875 31.02734375 C-12.79775238 30.31380737 -12.80253601 29.600271 -12.8074646 28.8651123 C-12.81085435 27.36236353 -12.80171633 25.85954009 -12.78076172 24.35693359 C-12.75397408 22.064399 -12.78053156 19.77675841 -12.8125 17.484375 C-12.80919573 16.01952051 -12.80278911 14.55466905 -12.79296875 13.08984375 C-12.8030899 12.40950073 -12.81321106 11.72915771 -12.82363892 11.02819824 C-12.73486513 7.39987455 -12.15631842 5.59698995 -10.03295898 2.62280273 C-6.41475941 0.05097614 -4.41058844 -0.047585 0 0 Z M-7.12890625 6.55859375 C-7.22911555 8.83807167 -7.25971928 11.1206651 -7.26171875 13.40234375 C-7.26267548 14.08663452 -7.2636322 14.77092529 -7.26461792 15.47595215 C-7.26529955 16.92521252 -7.26344648 18.37447593 -7.25927734 19.82373047 C-7.25392877 22.04922303 -7.25922285 24.27451376 -7.265625 26.5 C-7.26496422 27.90494836 -7.26368305 29.3098966 -7.26171875 30.71484375 C-7.26059082 32.00197266 -7.25946289 33.28910156 -7.25830078 34.61523438 C-7.46576768 37.44685532 -7.46576768 37.44685532 -6.12890625 38.55859375 C-3.53531303 38.64710904 -0.96850934 38.6738532 1.625 38.65625 C2.40044662 38.65483505 3.17589325 38.6534201 3.97483826 38.65196228 C6.46112869 38.6463472 8.94733035 38.63379221 11.43359375 38.62109375 C13.11523308 38.61608069 14.79687381 38.61151745 16.47851562 38.60742188 C20.60940941 38.59637288 24.74023651 38.5790982 28.87109375 38.55859375 C28.59031982 37.97086182 28.3095459 37.38312988 28.02026367 36.77758789 C25.04589116 30.06539215 24.25697325 24.29001582 24.18359375 16.99609375 C24.14173569 15.03637546 24.0963651 13.0767279 24.046875 11.1171875 C24.03567627 10.26439209 24.02447754 9.41159668 24.01293945 8.53295898 C24.08748446 6.55677833 24.08748446 6.55677833 22.87109375 5.55859375 C20.73756201 5.45856086 18.60071833 5.42778327 16.46484375 5.42578125 C14.51384766 5.42384766 14.51384766 5.42384766 12.5234375 5.421875 C11.5022583 5.42501709 11.5022583 5.42501709 10.46044922 5.42822266 C8.3798086 5.43357135 6.29938386 5.42827695 4.21875 5.421875 C2.91808594 5.42316406 1.61742188 5.42445312 0.27734375 5.42578125 C-0.92599609 5.42690918 -2.12933594 5.42803711 -3.36914062 5.42919922 C-6.03875107 5.24403398 -6.03875107 5.24403398 -7.12890625 6.55859375 Z " fill="#ffffff" transform="translate(84.12890625,15.44140625)"/>
<path d="M0 0 C0.74567734 -0.0004985 1.49135468 -0.00099701 2.2596283 -0.00151062 C3.83400135 0.00082764 5.4083783 0.0105417 6.98266602 0.02709961 C9.39698553 0.05072881 11.81020335 0.04765469 14.22460938 0.04101562 C15.75391285 0.04659129 17.28321167 0.05370047 18.8125 0.0625 C19.53647476 0.06158859 20.26044952 0.06067719 21.00636292 0.05973816 C26.10879812 0.13223562 26.10879812 0.13223562 28.33984375 2.36328125 C28.59863281 5.40429688 28.59863281 5.40429688 28.60546875 9.26953125 C28.60833893 10.29028748 28.60833893 10.29028748 28.61126709 11.33166504 C28.61262838 12.77075571 28.6089358 14.20985869 28.60058594 15.64892578 C28.58988503 17.85477212 28.60048247 20.05980406 28.61328125 22.265625 C28.61195964 23.66276222 28.60939723 25.05989893 28.60546875 26.45703125 C28.60321289 27.73255859 28.60095703 29.00808594 28.59863281 30.32226562 C28.33984375 33.36328125 28.33984375 33.36328125 26.33984375 35.36328125 C24.35299683 35.60379028 24.35299683 35.60379028 21.89013672 35.59033203 C20.96933319 35.59018097 20.04852966 35.59002991 19.099823 35.58987427 C18.10395172 35.5795517 17.10808044 35.56922913 16.08203125 35.55859375 C15.06384308 35.55576385 14.04565491 35.55293396 12.99661255 35.55001831 C9.73590475 35.53879895 6.47546891 35.51369121 3.21484375 35.48828125 C1.00781646 35.47825372 -1.19921513 35.46912748 -3.40625 35.4609375 C-8.82431197 35.43885393 -14.24221468 35.4053592 -19.66015625 35.36328125 C-20.15515625 33.87828125 -20.15515625 33.87828125 -20.66015625 32.36328125 C-19.89703125 31.64140625 -19.13390625 30.91953125 -18.34765625 30.17578125 C-11.9153805 23.44432988 -11.47366082 17.82257657 -11.23046875 8.76367188 C-10.9990561 3.90882735 -10.9990561 3.90882735 -9.60913086 1.67138672 C-6.60145789 -0.34729194 -3.49863344 -0.04463122 0 0 Z M-5.66015625 5.36328125 C-7.42832614 8.89962102 -6.98811475 13.23800351 -7.08984375 17.15820312 C-7.12078125 17.84849609 -7.15171875 18.53878906 -7.18359375 19.25 C-7.20341309 19.87092529 -7.22323242 20.49185059 -7.24365234 21.1315918 C-7.66015625 23.36328125 -7.66015625 23.36328125 -10.66015625 30.36328125 C0.88984375 30.36328125 12.43984375 30.36328125 24.33984375 30.36328125 C24.33984375 22.11328125 24.33984375 13.86328125 24.33984375 5.36328125 C14.43984375 5.36328125 4.53984375 5.36328125 -5.66015625 5.36328125 Z " fill="#ffffff" transform="translate(92.66015625,64.63671875)"/>
<path d="M0 0 C2.4375 1.5625 2.4375 1.5625 4 4 C4.51470588 9.97058824 4.51470588 9.97058824 3 13 C2.34 13 1.68 13 1 13 C0.34 15.31 -0.32 17.62 -1 20 C-2.65 19.67 -4.3 19.34 -6 19 C-5.50976284 14.685913 -4.68880986 12.36101233 -2 9 C-1.29485154 6.85266073 -1.29485154 6.85266073 -1 5 C-2.94999129 5.19471111 -2.94999129 5.19471111 -5 6 C-6.28436734 7.9837767 -6.28436734 7.9837767 -7 10 C-8.32 9.67 -9.64 9.34 -11 9 C-11.35430394 5.81126451 -11.25953249 4.38410809 -9.4375 1.6875 C-6.07228821 -0.64226201 -4.01027077 -0.57289582 0 0 Z " fill="#ffffff" transform="translate(96,24)"/>
<path d="M0 0 C1.39456452 0.00667256 2.78911118 0.01863093 4.18359375 0.03515625 C4.89451172 0.03966797 5.60542969 0.04417969 6.33789062 0.04882812 C8.09899388 0.06064761 9.86005411 0.07858362 11.62109375 0.09765625 C11.29109375 1.74765625 10.96109375 3.39765625 10.62109375 5.09765625 C6.00109375 5.09765625 1.38109375 5.09765625 -3.37890625 5.09765625 C-3.70890625 3.77765625 -4.03890625 2.45765625 -4.37890625 1.09765625 C-3.37890625 0.09765625 -3.37890625 0.09765625 0 0 Z " fill="#ffffff" transform="translate(31.37890625,6.90234375)"/>
<path d="M0 0 C3.68754757 0.49831724 5.60490662 1.10067643 8 4 C7.67 4.99 7.34 5.98 7 7 C6.34 7 5.68 7 5 7 C4.67 7.99 4.34 8.98 4 10 C2.68 9.67 1.36 9.34 0 9 C0 8.34 0 7.68 0 7 C-0.99 6.67 -1.98 6.34 -3 6 C-2.67 4.68 -2.34 3.36 -2 2 C-1.34 2 -0.68 2 0 2 C0 1.34 0 0.68 0 0 Z " fill="#ffffff" transform="translate(33,28)"/>
<path d="M0 0 C1.98 0.495 1.98 0.495 4 1 C4 2.32 4 3.64 4 5 C2.35 4.67 0.7 4.34 -1 4 C-0.67 2.68 -0.34 1.36 0 0 Z " fill="#ffffff" transform="translate(91,46)"/>
<path d="M0 0 C1.98 0.495 1.98 0.495 4 1 C3.67 2.32 3.34 3.64 3 5 C1.68 4.67 0.36 4.34 -1 4 C-0.67 2.68 -0.34 1.36 0 0 Z " fill="#ffffff" transform="translate(108,80)"/>
<path d="M0 0 C1.98 0.495 1.98 0.495 4 1 C3.67 2.32 3.34 3.64 3 5 C1.68 4.67 0.36 4.34 -1 4 C-0.67 2.68 -0.34 1.36 0 0 Z " fill="#ffffff" transform="translate(93,80)"/>
<path d="M0 0 C1.32 0.33 2.64 0.66 4 1 C4 2.32 4 3.64 4 5 C2.68 5 1.36 5 0 5 C0 3.35 0 1.7 0 0 Z " fill="#ffffff" transform="translate(100,80)"/>
</svg>
