<?xml version="1.0" encoding="UTF-8"?>
<svg version="1.1" xmlns="http://www.w3.org/2000/svg" width="121" height="120">
<path d="M0 0 C2 2 2 2 2.3125 5.6875 C2.03786554 16.3124208 -0.23262246 26.07293708 -6 35 C-7.87699362 38.23881686 -7.87699362 38.23881686 -7.5 42 C-7 45 -7 45 -7.95898438 46.78100586 C-9.37298812 49.79504903 -9.20953433 52.18029587 -9.15625 55.50390625 C-9.14815308 56.15210831 -9.14005615 56.80031036 -9.13171387 57.46815491 C-9.10013437 59.64584605 -9.0514578 61.8226918 -9 64 C-8.98356445 64.77833191 -8.96712891 65.55666382 -8.95019531 66.35858154 C-8.82517059 72.21896792 -8.66583594 78.078149 -8.5 83.9375 C-8.451636 85.69986467 -8.40345784 87.46223445 -8.35546875 89.22460938 C-8.23945407 93.48314814 -8.11965523 97.74155586 -8 102 C-1.07 102 5.86 102 13 102 C13.33 103.32 13.66 104.64 14 106 C13 107 13 107 10.14634705 107.12025452 C8.86949539 107.11803391 7.59264374 107.11581329 6.27709961 107.11352539 C5.5746965 107.11367142 4.8722934 107.11381744 4.14860535 107.1139679 C1.81648722 107.11326872 -0.515552 107.10547617 -2.84765625 107.09765625 C-4.46048438 107.09579208 -6.07331307 107.09436818 -7.68614197 107.09336853 C-11.93915357 107.08954323 -16.19213124 107.07971285 -20.44512939 107.06866455 C-24.7817743 107.05845069 -29.11842467 107.05387096 -33.45507812 107.04882812 C-41.97006769 107.03809059 -50.48502963 107.02101403 -59 107 C-59.5625 105.0625 -59.5625 105.0625 -60 103 C-59 102 -59 102 -55.39819336 101.88647461 C-53.79540144 101.88663375 -52.1926044 101.89232937 -50.58984375 101.90234375 C-49.74780899 101.9037587 -48.90577423 101.90517365 -48.03822327 101.90663147 C-45.33794665 101.91224737 -42.63775172 101.92480252 -39.9375 101.9375 C-38.11132932 101.94251295 -36.28515734 101.94707621 -34.45898438 101.95117188 C-29.97262458 101.96222196 -25.48632616 101.97949721 -21 102 C-21.66 100.02 -22.32 98.04 -23 96 C-23.28875 96.639375 -23.5775 97.27875 -23.875 97.9375 C-25 100 -25 100 -27 101 C-29.9375 101.3125 -29.9375 101.3125 -33 101 C-35.49834185 98.6306805 -35.97983182 97.15280572 -36.43359375 93.71484375 C-36.44215148 85.43951504 -35.5402858 78.60213156 -32 71 C-32.61875 70.71125 -33.2375 70.4225 -33.875 70.125 C-36 69 -36 69 -38 67 C-38.47707476 62.78583959 -38.43171409 60.67635208 -36.125 57.0625 C-34 55 -34 55 -32 55 C-32.33 53.02 -32.66 51.04 -33 49 C-33.37640625 49.44859375 -33.7528125 49.8971875 -34.140625 50.359375 C-38.24421454 53.9801893 -44.88044165 55.91026651 -50.30859375 56.06640625 C-54.5 55.5 -54.5 55.5 -56 54 C-56.3125 50.625 -56.3125 50.625 -56 47 C-53.30705056 44.45427331 -50.61181287 43.4258904 -47.125 42.3125 C-42.24848831 40.46946544 -40.05340794 38.19725831 -37.3515625 33.8046875 C-35.78872315 31.71789044 -34.38468223 30.98431564 -32 30 C-32.66 29.01 -33.32 28.02 -34 27 C-34.5493667 22.13418066 -34.73490373 20.1023556 -32 16 C-28.66828165 13.77885443 -26.85897144 13.24849155 -22.93359375 13.515625 C-19.49836596 14.37616691 -18.01394833 16.19267808 -16 19 C-15.1875 22.3125 -15.1875 22.3125 -15 25 C-11.80346977 19.4304224 -11.06272747 14.26396133 -10.27148438 8.01367188 C-9.44405751 2.46648465 -9.44405751 2.46648465 -7.06640625 -0.03125 C-4.30062035 -1.32787552 -2.85220456 -0.97575419 0 0 Z M-5 4 C-5.33 6.64 -5.66 9.28 -6 12 C-5.01 12 -4.02 12 -3 12 C-2.67 9.36 -2.34 6.72 -2 4 C-2.99 4 -3.98 4 -5 4 Z M-7 16 C-7.14695312 16.64066406 -7.29390625 17.28132813 -7.4453125 17.94140625 C-8.75850973 23.00551742 -10.15253929 27.77490407 -13.734375 31.69140625 C-17.5252948 33.88098924 -21.80120593 33.79626143 -26.08666992 34.07958984 C-30.92478772 34.51783127 -33.345277 35.41318013 -36.5 39.125 C-37.99325978 41.19894092 -37.99325978 41.19894092 -39 43 C-38.34 44.32 -37.68 45.64 -37 47 C-36.4225 46.34 -35.845 45.68 -35.25 45 C-33 43 -33 43 -29 43 C-28.34 46.63 -27.68 50.26 -27 54 C-22.71 54 -18.42 54 -14 54 C-13.855625 52.865625 -13.71125 51.73125 -13.5625 50.5625 C-13 47 -13 47 -12 46 C-11.78954134 41.90744494 -11.78954134 41.90744494 -12.8125 38 C-12.874375 37.34 -12.93625 36.68 -13 36 C-11.82859351 34.59431221 -10.64800095 33.19487813 -9.4140625 31.84375 C-5.88634987 27.2440805 -4 21.73657041 -4 16 C-4.99 16 -5.98 16 -7 16 Z M-30 21 C-29.42547254 24.93075644 -29.42547254 24.93075644 -27 28 C-23.90073181 27.67801034 -23.90073181 27.67801034 -21 27 C-20.23283149 24.14921909 -20.23283149 24.14921909 -20 21 C-21.12640605 19.03959519 -21.12640605 19.03959519 -23 18 C-26.51716303 18 -27.37121748 18.82445585 -30 21 Z M-52 49 C-52 49.66 -52 50.32 -52 51 C-46.8306511 50.59443869 -46.8306511 50.59443869 -42 49 C-42 48.34 -42 47.68 -42 47 C-45.90432869 47 -48.38026598 47.68373308 -52 49 Z M-33 60 C-33.93391003 61.81656815 -33.93391003 61.81656815 -34 64 C-32.92154693 66.32683688 -32.92154693 66.32683688 -31 68 C-29.68 68 -28.36 68 -27 68 C-27.28875 68.7528125 -27.5775 69.505625 -27.875 70.28125 C-31.07992727 79.45090303 -31.44439494 87.3837872 -31 97 C-29.515 96.505 -29.515 96.505 -28 96 C-28.01353516 94.94425781 -28.01353516 94.94425781 -28.02734375 93.8671875 C-27.78015989 85.6348903 -25.50783735 80.17907588 -21.59375 73.12890625 C-20.14194804 70.2786774 -19.2736835 68.16925498 -19 65 C-20.1415919 62.7168162 -21.19012683 60.80987317 -23 59 C-28.17735677 58.62947661 -28.17735677 58.62947661 -33 60 Z M-17 59 C-16.89300781 59.6290625 -16.78601563 60.258125 -16.67578125 60.90625 C-15.90030975 66.44294974 -16.08043122 69.93128167 -18.2890625 75.02734375 C-21.02275761 82.61259665 -18.38910621 92.36498559 -17 100 C-16.67 100.66 -16.34 101.32 -16 102 C-14.02 101.505 -14.02 101.505 -12 101 C-12.66 87.14 -13.32 73.28 -14 59 C-14.99 59 -15.98 59 -17 59 Z " fill="#018380" transform="translate(81,7)"/>
<path d="M0 0 C5.43846581 0.24720299 7.3869304 2.10900197 11 6 C11.928125 6.515625 12.85625 7.03125 13.8125 7.5625 C14.534375 8.036875 15.25625 8.51125 16 9 C16 10.32 16 11.64 16 13 C13.01405576 14.49297212 10.29146376 14.11755228 7 14 C6.34 13.67 5.68 13.34 5 13 C4.95101562 13.81984375 4.90203125 14.6396875 4.8515625 15.484375 C4.77679688 16.56203125 4.70203125 17.6396875 4.625 18.75 C4.55539063 19.81734375 4.48578125 20.8846875 4.4140625 21.984375 C4.0234024 24.82955988 3.52185446 26.59502561 2 29 C-0.56265486 30.92199114 -1.83198949 31.01028636 -5.0625 30.8125 C-9.43877551 29.60204082 -9.43877551 29.60204082 -11 27 C-11.50030235 23.06905293 -11.5996142 20.8994213 -9.375 17.5625 C-6.39470692 15.60178087 -4.49936621 15.88015869 -1 16 C-1.01160156 14.92878906 -1.02320313 13.85757812 -1.03515625 12.75390625 C-1.04453299 11.35677257 -1.05363331 9.95963701 -1.0625 8.5625 C-1.07506836 7.50192383 -1.07506836 7.50192383 -1.08789062 6.41992188 C-1.09653588 4.61306441 -1.05220011 2.80612397 -1 1 C-0.67 0.67 -0.34 0.34 0 0 Z M-5 20 C-5.66 20.66 -6.32 21.32 -7 22 C-6.6814823 24.10820797 -6.6814823 24.10820797 -6 26 C-4.35 25.67 -2.7 25.34 -1 25 C-1 23.68 -1 22.36 -1 21 C-2.89179203 20.3185177 -2.89179203 20.3185177 -5 20 Z " fill="#018380" transform="translate(28,15)"/>
<path d="M0 0 C3.25276344 0 5.33527151 0.43926709 7.84765625 2.55859375 C9.05017594 3.78664464 10.23121168 5.0362078 11.38671875 6.30859375 C13.09061525 8.21874761 13.09061525 8.21874761 16 10 C15.34 11.32 14.68 12.64 14 14 C6.25 14.125 6.25 14.125 4 13 C3.97421875 13.96421875 3.9484375 14.9284375 3.921875 15.921875 C3.86515625 17.18515625 3.8084375 18.4484375 3.75 19.75 C3.68039063 21.62945312 3.68039063 21.62945312 3.609375 23.546875 C2.92224174 27.44063015 2.14772618 28.68515757 -1 31 C-4.35257076 31.48891657 -6.26389315 31.35810604 -9.3125 29.875 C-11.66290584 27.26343795 -11.93021482 25.48925922 -12 22 C-11 19.1875 -11 19.1875 -9 17 C-6.67851624 16.59223938 -4.34348574 16.2522502 -2 16 C-1.93941406 14.92878906 -1.87882812 13.85757813 -1.81640625 12.75390625 C-1.73201463 11.35675609 -1.64736594 9.95962143 -1.5625 8.5625 C-1.50352539 7.50192383 -1.50352539 7.50192383 -1.44335938 6.41992188 C-1.11328125 1.11328125 -1.11328125 1.11328125 0 0 Z M-6 21 C-6.33 22.32 -6.66 23.64 -7 25 C-5.515 25.99 -5.515 25.99 -4 27 C-3.01 26.34 -2.02 25.68 -1 25 C-1.33 23.68 -1.66 22.36 -2 21 C-3.32 21 -4.64 21 -6 21 Z " fill="#018380" transform="translate(88,38)"/>
</svg>
